<?xml version="1.0" standalone="no"?>
<!DOCTYPE svg PUBLIC "-//W3C//DTD SVG 1.1//EN" "http://www.w3.org/Graphics/SVG/1.1/DTD/svg11.dtd" >
<svg xmlns="http://www.w3.org/2000/svg">
<metadata></metadata>
<defs>
<font id="didotbold_italic" horiz-adv-x="1452" >
<font-face units-per-em="2048" ascent="1638" descent="-410" />
<missing-glyph horiz-adv-x="409" />
<glyph horiz-adv-x="0" />
<glyph unicode="&#xd;" horiz-adv-x="409" />
<glyph unicode=" "  horiz-adv-x="409" />
<glyph unicode="&#x09;" horiz-adv-x="409" />
<glyph unicode="&#xa0;" horiz-adv-x="409" />
<glyph unicode="!" horiz-adv-x="602" d="M39 68q0 -41 25.5 -68t66.5 -27q27 0 53.5 13.5t46 35t31.5 51t12 60.5q0 41 -25.5 67.5t-62.5 26.5q-59 0 -103 -48t-44 -111zM217 336q-4 -4 2 -5t14 -1t16.5 1t10.5 5q27 90 70 191.5t92 205t99 203.5t90 185t64.5 151.5t24.5 103.5q0 45 -25.5 76t-76.5 31 q-57 0 -113.5 -39t-89.5 -148q-25 -74 -40 -183t-31.5 -236t-41 -266.5t-65.5 -274.5z" />
<glyph unicode="&#x22;" horiz-adv-x="702" d="M260 997q-2 -6 3 -8t11 -2q8 0 14.5 1t8.5 5q-2 0 3 11l5 10q23 45 55.5 92t63.5 94t52.5 93t21.5 89q0 49 -24.5 77t-70.5 28q-35 0 -61.5 -31t-36.5 -65q-25 -78 -25.5 -174.5t-15.5 -200.5l-3 -8q-3 -9 -1 -11zM592 997q-2 -6 3 -8t11 -2q8 0 14.5 1t8.5 5q-2 0 3 11 l5 10q23 45 55.5 92t63 94t52 93t21.5 89q0 49 -24.5 77t-69.5 28q-35 0 -61.5 -31t-36.5 -65q-25 -78 -26 -174.5t-15 -200.5l-3 -8q-3 -9 -1 -11z" />
<glyph unicode="#" horiz-adv-x="937" d="M59 279q0 -20 4 -21h201l-92 -342q0 -4 18.5 -6t20.5 2l92 346h238l-92 -342q0 -2 5 -3t12 -2t13 -1t6 2l97 346h231q4 0 4 21q0 20 -4 20h-219l80 309h233q4 0 4 21q0 20 -4 20h-221l82 307q0 2 -5 3.5t-12.5 2.5t-13.5 1t-6 -2l-86 -312h-235l82 307q0 2 -5.5 3.5 t-12.5 2.5t-13 1t-6 -2l-86 -312h-209q-4 0 -4 -20t4 -21h196l-77 -309h-216q-4 0 -4 -20zM315 299l82 309h240l-82 -309h-240z" />
<glyph unicode="$" horiz-adv-x="1081" d="M39 242q0 -98 68.5 -164t168.5 -94l-59 -187q0 -4 6 -7t14.5 -4t15.5 -2t7 3l59 188q25 -6 49.5 -8t49.5 -2h16l-53 -168q0 -4 6 -7t13.5 -4t14.5 -2t7 3l9 29q9 28 19.5 62t19.5 62l9 29q106 8 189.5 49t139.5 104.5t86 145.5t30 174q0 63 -14.5 118.5t-38 105 t-53.5 93.5t-62 85q2 4 19.5 60.5t46 145.5t55 174t45.5 146l18 60q74 -23 119 -71t45 -112q0 -41 -9.5 -68.5t-39.5 -27.5q-18 0 -30.5 4t-23 10t-20.5 10.5t-27 4.5q-29 0 -48 -21.5t-19 -64.5q0 -37 24.5 -59.5t63.5 -22.5q70 0 121 53.5t51 157.5q0 88 -52.5 153.5 t-142.5 91.5l58 181q0 2 -6.5 4t-14.5 3t-15 2t-7 -1l-58 -180q-16 4 -33.5 6t-35.5 2q-10 0 -22.5 -1t-22.5 -1l51 166q0 2 -6 4t-14.5 3t-15.5 2t-7 -1l-55 -180q-90 -16 -167 -58.5t-132.5 -104t-87 -138t-31.5 -160.5q0 -111 48 -199t109 -168l-198 -629 q-86 25 -141.5 79.5t-55.5 127.5q0 82 53 82q20 0 35 -5t25 -10t22.5 -10t30.5 -5q33 0 54.5 22.5t21.5 69.5q0 41 -31 68.5t-72 27.5q-82 0 -137 -57.5t-55 -167.5zM332 12l186 594q23 -29 43.5 -56t38.5 -56q-4 -12 -16.5 -51.5t-29.5 -92.5t-35.5 -112.5t-35 -110.5 t-28 -85t-11.5 -36q-8 -2 -16 -2h-18q-45 0 -78 8zM494 12q8 25 24.5 77t35.5 114.5t38.5 126t36.5 110.5q23 -41 36 -85t13 -95q0 -100 -43 -163.5t-141 -84.5zM565 1239q0 72 40 122.5t126 70.5l-11 -39q-11 -39 -28.5 -94.5t-35 -113t-30 -94t-12.5 -38.5q-23 41 -36 87 t-13 99zM641 999q2 4 15.5 46t34 110t41 131.5t34.5 108.5l14 45q14 2 28.5 3t31.5 1q28 0 57 -6l-174 -551q-23 29 -43.5 56.5t-38.5 55.5z" />
<glyph unicode="%" horiz-adv-x="1435" d="M102 991q0 -123 67 -190.5t169 -67.5q96 0 179 44t143.5 111.5t94 150.5t33.5 163q0 123 -66.5 190.5t-166.5 67.5q-96 0 -179 -44t-143.5 -111.5t-95.5 -150.5t-35 -163zM260 913q0 45 15.5 112t41 135.5t60.5 128t74 93.5q27 23 53 30t55 7q47 0 64.5 -32.5 t17.5 -106.5q0 -47 -15.5 -112.5t-41 -134t-59 -129t-72.5 -93.5q-29 -23 -53.5 -30t-53.5 -7q-47 0 -66.5 33t-19.5 106zM297 -27q-2 -4 14.5 -15t18.5 -7l880 1536l-5 4t-12 8t-13 7t-6 1zM715 240q0 -123 66.5 -190.5t164.5 -67.5t181 44t143.5 111.5t94.5 150.5t34 163 q0 123 -65.5 190.5t-168.5 67.5q-96 0 -178 -44t-142.5 -112t-95 -151t-34.5 -162zM872 162q0 45 15.5 111.5t41 135t60.5 128t74 94.5q27 23 52.5 30t53.5 7q47 0 66.5 -33t19.5 -107q0 -47 -15 -112.5t-42 -134t-61.5 -129t-73.5 -93.5q-25 -23 -51.5 -29.5t-53.5 -6.5 q-49 0 -67.5 32.5t-18.5 106.5z" />
<glyph unicode="&#x26;" horiz-adv-x="1570" d="M74 328q0 -84 27.5 -150.5t76.5 -114t116.5 -73t149.5 -25.5q63 0 120 12.5t105 33t86 47t64 53.5q31 -35 61.5 -61.5t67.5 -45t82 -29t105 -10.5q70 0 131 18.5t108 52.5t81 79t48 98q0 2 -5 5t-12 6t-14.5 4t-7.5 -1q-18 -61 -59 -89.5t-94 -28.5q-80 0 -145.5 43 t-118.5 149q41 59 68.5 122.5t50 117t45 87.5t53.5 34q37 0 50 -22t23.5 -47.5t28.5 -47t68 -21.5q59 0 82.5 33t23.5 80q0 66 -43 112t-121 46q-80 0 -129 -46.5t-83 -115t-63.5 -148t-70.5 -147.5q-66 137 -106.5 299t-42.5 358q158 76 248 166t90 185q0 63 -38 100 t-114 37q-98 0 -186 -44t-152.5 -120t-102.5 -179.5t-38 -221.5q-127 -47 -222.5 -111t-161 -139.5t-98 -161.5t-32.5 -178zM350 442q0 147 59.5 264t176.5 173q0 -127 16 -233.5t44 -196t67 -165t84 -143.5q-27 -31 -66 -45t-86 -14q-158 0 -226.5 96t-68.5 264zM881 1034 q2 76 16 147.5t41 128t65.5 90.5t92.5 34q82 0 82 -78q0 -96 -76 -173t-221 -149z" />
<glyph unicode="'" horiz-adv-x="370" d="M260 997q-2 -6 3 -8t11 -2q8 0 14.5 1t8.5 5q-2 0 3 11l5 10q23 45 55.5 92t63.5 94t52.5 93t21.5 89q0 49 -24.5 77t-70.5 28q-35 0 -61.5 -31t-36.5 -65q-25 -78 -25.5 -174.5t-15.5 -200.5l-3 -8q-3 -9 -1 -11z" />
<glyph unicode="(" horiz-adv-x="657" d="M72 115q0 -115 20.5 -206t56 -166t83 -133.5t102.5 -105.5q4 -2 14 9.5t6 13.5q-47 33 -70.5 97.5t-23.5 191.5q0 47 14.5 140t41 213t61.5 256t77 268t87 250t90 202q59 102 142 183t206 149q4 0 -4 17t-8 15q-174 -98 -336 -244.5t-286 -327.5t-198.5 -390t-74.5 -432z " />
<glyph unicode=")" horiz-adv-x="657" d="M-338 -463q-4 0 4 -17.5t8 -15.5q174 98 335 245t286 328t199.5 390t74.5 432q0 113 -20.5 205t-56 167t-83 133t-102.5 105q-2 2 -13 -9t-7 -13q25 -16 42 -40t29.5 -57.5t18.5 -80.5t6 -111q0 -47 -15.5 -140t-41 -213t-61.5 -256t-77 -268.5t-86 -250t-90 -201.5 q-59 -102 -142 -183t-208 -149z" />
<glyph unicode="*" horiz-adv-x="593" d="M227 1184q-4 -23 9.5 -46.5t37.5 -27.5q14 -4 23 2q12 2 24.5 13.5t28 24.5t37 29.5t53.5 32.5l13 7l-2 -15q-6 -41 -17.5 -61.5t-23 -34.5t-20.5 -25.5t-13 -31.5q-4 -23 8 -42.5t39 -23.5t44 10.5t21 34.5t-1 34.5t-10 31t-8 41t3 65.5l2 12l10 -8q29 -23 44.5 -45 t24.5 -42.5t15 -36t19 -23.5q4 -4 20 -8q23 -4 44.5 13t25.5 40q2 27 -12 41q-14 16 -29.5 20t-34 7.5t-43 12.5t-59.5 38q0 2 -4 5t-7 3q2 2 7 3l6 1q41 14 67.5 15t46 -2t33.5 -3q16 0 37 10q8 4 15.5 13.5t9.5 19.5q4 23 -10.5 46.5t-38.5 27.5q-12 4 -21 -2 q-14 -4 -26.5 -14.5t-28 -23.5t-37 -30.5t-53.5 -31.5l-13 -7l2 15q6 39 17.5 60.5t23 35.5t20.5 25.5t13 31.5q4 23 -8 42.5t-39 23.5t-44 -10.5t-22 -34.5q-4 -20 1.5 -34.5t10.5 -32t8 -41t-3 -64.5l-2 -13l-10 9q-29 23 -44.5 45t-24.5 42.5t-15.5 36t-18.5 23.5 q-4 4 -9 5t-9 3q-25 4 -45.5 -13t-24.5 -40q-2 -25 10 -41q14 -16 29.5 -20t34 -8.5t43 -13.5t59.5 -36q0 -2 4 -5t6 -3q-2 -2 -7 -3l-5 -1q-41 -14 -67.5 -15t-46 2t-35.5 3q-14 0 -35 -10q-8 -4 -14.5 -13.5t-8.5 -19.5z" />
<glyph unicode="+" horiz-adv-x="819" d="M90 434q0 -10 1 -18t3 -8h289v-293q0 -2 8 -3t19 -1q12 0 20 1t8 3v293h275q2 0 2 8v18v21q0 8 -2 8h-275v307q0 2 -8 2h-20h-19q-8 0 -8 -2v-307h-289q-2 0 -3 -8.5t-1 -20.5z" />
<glyph unicode="," horiz-adv-x="428" d="M-140 -287q-1 -8 0 -13l1 -5q84 16 158.5 58t132 97.5t90 118t32.5 121.5q0 47 -23.5 86t-80.5 39q-63 0 -96 -40t-33 -99q0 -27 7 -46.5t16.5 -38t16.5 -36.5t7 -43q0 -47 -31.5 -79t-74.5 -54q-25 -14 -55.5 -24.5t-61.5 -20.5q-2 0 -3 -6.5t-2 -14.5z" />
<glyph unicode="-" horiz-adv-x="659" d="M55 422h512q4 35 12.5 68.5t24.5 56.5q8 8 0 8h-512q-4 -35 -12 -68.5t-25 -56.5q-4 -8 0 -8z" />
<glyph unicode="." horiz-adv-x="428" d="M41 53q0 -41 26.5 -66.5t65.5 -25.5q27 0 53.5 13.5t46 35t31.5 50t12 59.5q0 41 -25.5 68.5t-62.5 27.5q-59 0 -103 -49t-44 -113z" />
<glyph unicode="/" horiz-adv-x="671" d="M104 -31q0 -2 5.5 -5t11.5 -6t11 -5t5 0l654 1591q2 4 -16.5 12.5t-20.5 4.5z" />
<glyph unicode="0" horiz-adv-x="1110" d="M82 324q0 -76 27.5 -138.5t75.5 -107.5t110.5 -70.5t132.5 -25.5q100 0 199.5 47t179.5 124.5t129 180t49 211.5q0 76 -28.5 139.5t-75.5 108.5t-109.5 70.5t-132.5 25.5q-104 0 -203.5 -47t-178.5 -126t-127 -180.5t-48 -211.5zM262 156q0 27 11.5 75t30 106t42 120.5 t46 119t43 99.5t32.5 63q20 33 36.5 53.5t37 33t45 17.5t59.5 5q78 0 120 -35t42 -98q0 -27 -11.5 -75t-29.5 -107.5t-42 -122t-46.5 -117.5t-43 -99t-32.5 -63q-23 -33 -41 -53.5t-38.5 -32.5t-46 -17t-62.5 -5q-74 0 -113 34.5t-39 98.5z" />
<glyph unicode="1" horiz-adv-x="798" d="M-20.5 6q-2.5 -6 0.5 -6h520q4 0 10 20.5t2 20.5h-131q-12 0 -10 8l243 772q0 8 15 8h133q2 0 4 6.5t5 14.5t4 14t-1 6h-522q-2 0 -4 -6t-4 -14t-3 -14.5t1 -6.5h131q12 0 12 -8l-244 -772q-2 -8 -16 -8h-131q-2 0 -5 -6t-5 -14.5t-4.5 -14.5z" />
<glyph unicode="2" horiz-adv-x="894" d="M-112.5 14.5q1.5 -14.5 6.5 -14.5h800q6 0 6 6l86 268q0 4 -20 5q-20 0 -25 -5q-20 -72 -61 -96t-127 -24h-305q-20 0 -6 8q268 133 398 248.5t130 238.5q0 119 -80 179.5t-213 60.5q-78 0 -140.5 -24.5t-107.5 -62.5t-68.5 -84t-23.5 -91q0 -88 46 -128t118 -40 q41 0 68.5 27.5t27.5 62.5q0 76 -73 76q-16 0 -24.5 -4.5t-17 -8.5t-18.5 -8t-31 -4q-25 0 -32.5 13.5t-7.5 41.5q0 25 16 55.5t44 58.5t66.5 46.5t81.5 18.5q78 0 108 -31t30 -109q0 -84 -34 -175t-111 -178t-199.5 -167t-298.5 -141q-10 -4 -8.5 -18.5z" />
<glyph unicode="3" horiz-adv-x="839" d="M-256 -371q0 -94 67.5 -154.5t215.5 -60.5q94 0 205.5 43t205.5 120t157.5 185.5t63.5 237.5q0 125 -71.5 189.5t-179.5 64.5q-33 0 -72 -8q68 23 141.5 65.5t136 96t103.5 115t41 120.5q0 45 -15.5 89t-50.5 79t-95 56.5t-148 21.5q-72 0 -130.5 -23.5t-99.5 -59.5 t-63.5 -80t-22.5 -85q0 -78 43 -127t117 -49q35 0 61.5 22.5t26.5 57.5q0 43 -18.5 63.5t-47.5 20.5q-16 0 -25 -4t-16.5 -8.5t-18.5 -8.5t-30 -4q-41 0 -41 62q0 20 13.5 48.5t40 55.5t65.5 46.5t92 19.5q80 0 111 -39t31 -123q0 -74 -18.5 -141.5t-63.5 -130t-121 -120 t-191 -110.5q-4 -2 7.5 -16.5t17.5 -10.5q45 27 79 41.5t60 14.5q53 0 82 -40t29 -153t-21.5 -213t-69.5 -176t-122 -120t-178 -44q-66 0 -108 14.5t-67.5 36t-36 48t-10.5 51.5q0 41 24 63.5t52 22.5q23 0 38 -5t27.5 -11.5t24 -11.5t29.5 -5q35 0 55.5 24.5t20.5 71.5 t-31 76t-74 29q-104 0 -165.5 -65.5t-61.5 -164.5z" />
<glyph unicode="4" horiz-adv-x="948" d="M-92 29q-4 -4 2 -16.5t10 -12.5h463l-180 -569h231l178 569h211q4 0 11.5 20.5t3.5 20.5h-215l137 426q0 4 -20.5 6t-20.5 -6q-12 -25 -41 -60.5t-66 -68.5t-76.5 -57.5t-72.5 -26.5l-72 -213h-422l1139 1055q2 2 -12.5 14t-12.5 12q-29 -29 -79 -56.5t-105 -46 t-105.5 -25.5t-76.5 5l-598 -731q-53 -68 -109.5 -133t-101.5 -106z" />
<glyph unicode="5" horiz-adv-x="878" d="M-264 -373q0 -92 66.5 -153.5t213.5 -61.5q70 0 148 23.5t153.5 65.5t145 101.5t122 129t83 149.5t30.5 164q0 129 -85 206t-226 77q-72 0 -124 -23.5t-95 -71.5l127 562q12 -27 38.5 -52.5t62.5 -45t80 -32t93 -12.5q115 0 191 52.5t76 136.5q0 33 -16.5 54.5 t-59.5 21.5q-23 0 -47.5 -17.5t-58 -38t-80 -38t-109.5 -17.5q-121 0 -170 67q-2 2 -15.5 -4t-13.5 -10q-2 -4 -1 -6t-3 -12l-153 -682q-4 -10 -13.5 -29.5t-13.5 -30.5q-4 -14 6 -20t16 -6q4 0 17.5 2t17.5 8q4 16 3 31.5t14 42.5q41 66 90 94.5t108 28.5q53 0 78 -34 t25 -114q0 -150 -24.5 -274.5t-78 -214.5t-136.5 -140.5t-200 -50.5q-66 0 -108.5 14.5t-68 36t-36 48t-10.5 51.5q0 41 23.5 63.5t52.5 22.5q23 0 36 -5.5t25.5 -11.5t25.5 -11t34 -5q29 0 52.5 24.5t23.5 71.5t-32 77t-77 30q-104 0 -163.5 -66.5t-59.5 -165.5z" />
<glyph unicode="6" horiz-adv-x="1028" d="M98 326q0 -92 27 -157t70 -105.5t99 -60t116 -19.5q92 0 182 43t160.5 115.5t114.5 165.5t44 194q0 70 -21.5 128t-60 100t-93 65.5t-118.5 23.5q-61 0 -117.5 -32.5t-94.5 -92.5q14 51 42.5 125t65.5 155t83 159.5t96 141t102.5 101.5t105.5 39q90 0 137 -41t47 -102 q0 -37 -19 -58.5t-46 -21.5q-23 0 -37 5t-26.5 10t-25.5 10.5t-34 5.5q-29 0 -50.5 -23.5t-21.5 -75.5q0 -45 31 -71.5t76 -26.5q39 0 77 17.5t66.5 45t46 64.5t17.5 76q0 100 -56.5 163.5t-179.5 63.5q-86 0 -179 -50t-182 -136t-170 -200t-141.5 -239.5t-96.5 -256 t-36 -248.5zM252 158q0 31 16.5 96t38 137t45 136.5t39.5 93.5q14 27 37 54t50.5 50t59 38t64.5 15q72 0 103.5 -30.5t31.5 -98.5q0 -37 -19.5 -109.5t-47 -150.5t-55 -146.5t-46.5 -97.5q-41 -61 -76.5 -90.5t-93.5 -29.5q-84 0 -115.5 31.5t-31.5 101.5z" />
<glyph unicode="7" horiz-adv-x="909" d="M-217 -567h270l666 1114q23 39 50.5 80t56 79.5t57 74.5t53.5 63q4 4 5 17t-3 13h-18h-678q-4 0 -9 -10l-104 -329q0 -2 6 -3.5t15 -1.5q8 0 15 1t7 4q14 45 28.5 74.5t35 46t51 22.5t80.5 6h399z" />
<glyph unicode="8" horiz-adv-x="1038" d="M63 285q0 -72 27 -128.5t73 -95t108.5 -59t131.5 -20.5q94 0 181.5 30.5t155 86t108.5 134t41 177.5q0 61 -12.5 111t-33 95.5t-49 86t-61.5 81.5q184 80 274.5 174.5t90.5 217.5q0 47 -17.5 97t-54.5 91t-94.5 66.5t-136.5 25.5q-98 0 -177 -35t-134.5 -93t-84 -134 t-28.5 -156q0 -94 31.5 -167.5t80.5 -135.5q-190 -80 -305 -190.5t-115 -259.5zM238 233q0 111 16 187t50 130t85 90t119 65q33 -41 64.5 -83t57 -87.5t41 -93.5t15.5 -99q0 -166 -65.5 -242.5t-194.5 -76.5q-92 0 -140 52t-48 158zM547 1163q0 252 233 252q86 0 121 -51 t35 -131q0 -27 -2 -81t-22.5 -117.5t-67.5 -124t-137 -99.5q-68 82 -114 163t-46 189z" />
<glyph unicode="9" horiz-adv-x="1034" d="M-139 -379q0 -98 65.5 -150.5t179.5 -52.5q86 0 179.5 50.5t183.5 136.5t170 198.5t140.5 238.5t96 256t35.5 249q0 72 -20.5 134t-59 108.5t-97 73t-134.5 26.5q-94 0 -186 -48t-166 -127t-119 -178.5t-45 -199.5q0 -78 21.5 -136.5t60.5 -97.5t90 -58t113 -19 q72 0 128 32.5t93 85.5q-113 -350 -233.5 -517t-252.5 -167q-84 0 -137 38t-53 87q0 45 19.5 64.5t48.5 19.5q25 0 37 -6t22 -12t21.5 -12.5t29.5 -6.5q33 0 57.5 26t24.5 75q0 43 -32.5 72.5t-75.5 29.5q-49 0 -87 -18.5t-64 -48t-40 -67.5t-14 -79zM260 193 q0 37 20.5 114.5t49 161.5t58.5 157.5t48 102.5q41 61 77 90t93 29q82 0 115 -31.5t33 -101.5q0 -31 -16.5 -98.5t-39 -143.5t-47 -142.5t-39.5 -94.5q-39 -72 -94 -122.5t-123 -50.5q-72 0 -103.5 31t-31.5 99z" />
<glyph unicode=":" horiz-adv-x="561" d="M41 53q0 -41 26.5 -66.5t65.5 -25.5q27 0 53.5 13.5t46 35t31.5 50t12 59.5q0 41 -25.5 68.5t-62.5 27.5q-59 0 -103 -49t-44 -113zM223 647q0 -43 25.5 -68.5t64.5 -25.5q29 0 54.5 13.5t46 35t32 50t11.5 59.5q0 41 -25.5 69.5t-60.5 28.5q-31 0 -57.5 -13.5t-46 -37 t-32 -52t-12.5 -59.5z" />
<glyph unicode=";" horiz-adv-x="561" d="M-140 -287q-1 -8 0 -13l1 -5q84 16 158.5 58t132 97.5t90 118t32.5 121.5q0 47 -23.5 86t-80.5 39q-63 0 -96 -40t-33 -99q0 -27 7 -46.5t16.5 -38t16.5 -36.5t7 -43q0 -47 -31.5 -79t-74.5 -54q-25 -14 -55.5 -24.5t-61.5 -20.5q-2 0 -3 -6.5t-2 -14.5zM223 647 q0 -43 25.5 -68.5t64.5 -25.5q29 0 54.5 13.5t46 35t32 50t11.5 59.5q0 41 -25.5 69.5t-60.5 28.5q-31 0 -57.5 -13.5t-46 -37t-32 -52t-12.5 -59.5z" />
<glyph unicode="&#x3c;" horiz-adv-x="665" d="M104 436q0 -10 2 -12l447 -274q2 -2 5 4t7 13t6 14t0 7l-397 248l397 250q2 0 0 7t-6 14.5t-7 12.5t-5 5l-447 -274q-2 -2 -2 -15z" />
<glyph unicode="=" horiz-adv-x="747" d="M113 311q0 -18 4 -18h518v39h-518q-4 0 -4 -21zM113 557q0 -20 4 -20h518v41h-518q-4 0 -4 -21z" />
<glyph unicode="&#x3e;" horiz-adv-x="686" d="M119 179q2 -7 6 -14t7 -12.5t5 -5.5l449 275v27l-449 274q-2 2 -5 -4t-7 -13.5t-6 -14.5t0 -7l397 -248l-397 -250q-2 0 0 -7z" />
<glyph unicode="?" horiz-adv-x="987" d="M47 68q0 -41 25.5 -68t66.5 -27q27 0 53.5 13.5t46 35t32 51t12.5 60.5q0 41 -26 67.5t-62 26.5q-59 0 -103.5 -48t-44.5 -111zM225 336q-2 -4 4.5 -5t14.5 -1q10 0 18 1t8 5l111 350q10 -23 49 -37t80 -14q98 0 188 38t159 105.5t110 160t41 198.5q0 70 -25 133 t-68 111.5t-102 76t-129 27.5q-78 0 -149.5 -29t-127 -74t-89 -100t-33.5 -111q0 -49 32.5 -90t85.5 -41q55 0 84 30t29 71q0 20 -5 35.5t-12 30t-12.5 31.5t-5.5 44q0 78 51.5 119t137.5 41q39 0 61.5 -9.5t34.5 -24.5t15 -36.5t3 -44.5q0 -37 -15 -115.5t-36.5 -162.5 t-44 -157t-37.5 -99q-35 -68 -62.5 -93.5t-86.5 -25.5q-43 0 -74 20.5t-39 50.5q-2 6 -20.5 3t-16.5 -11q-2 0 -7 -18.5t-5 -20.5z" />
<glyph unicode="@" horiz-adv-x="1603" d="M156 725q0 -158 57 -296t155.5 -241.5t230.5 -163t280 -59.5q129 0 244.5 45t209.5 125q4 4 -8 19.5t-16 13.5q-88 -78 -198 -118t-232 -40q-141 0 -265.5 55.5t-216.5 152.5t-145 227t-53 280q0 154 53 285t145 227t216 150.5t266 54.5q123 0 235.5 -41t196.5 -120 t134 -192.5t50 -261.5q0 -92 -30.5 -168.5t-83 -132t-119 -86t-140.5 -30.5q-41 0 -60.5 16t-20.5 55t14.5 103.5t44.5 163.5l98 325h-172l-22 -74q-2 90 -91 91q-90 0 -168.5 -43t-137 -112t-93.5 -152t-35 -162q0 -49 10.5 -95.5t35 -83t63.5 -59.5t96 -23t110.5 43 t90.5 166q-10 -39 -2 -76.5t33.5 -66.5t68.5 -47.5t102 -18.5q70 0 150 28t147.5 84t111.5 144t44 209q0 158 -53 281t-143.5 208t-210 129t-254.5 44q-147 0 -279.5 -59.5t-231 -163t-155.5 -242.5t-57 -297zM643 530q0 51 12.5 123t35 143.5t57 133t77.5 96.5 q23 18 39.5 21.5t32.5 3.5q49 0 70.5 -24t19.5 -77l-74 -252q-6 -25 -24.5 -74t-46 -97t-62.5 -84.5t-73 -36.5q-35 0 -49.5 27.5t-14.5 96.5z" />
<glyph unicode="A" horiz-adv-x="1341" d="M-293 0h414q2 0 4 6t5 14.5t4 14.5t-1 6h-145q-18 0 -15.5 15.5t43.5 70.5l275 358h471v-438q0 -6 -12 -6h-154q-2 0 -4 -6t-4 -14.5t-3 -14.5t1 -6h651q2 0 4 6t5 14q4 12 4 18q0 3 -1 3h-196q-12 0 -13 6v1434q0 2 -8 4t-18 2q-8 0 -17.5 -2t-11.5 -4l-1022 -1356 q-35 -49 -58.5 -66.5t-47.5 -17.5h-138q-4 -1 -10 -21q-4 -12 -4 -17q0 -3 2 -3zM324 528l438 582v-582h-438z" />
<glyph unicode="B" horiz-adv-x="1325" d="M-115 0h674q137 0 253 37t201 99.5t133 143t48 169.5q0 154 -100.5 233.5t-270.5 93.5q102 6 188.5 35t149 76t97 110.5t34.5 139.5q0 147 -106.5 231t-311.5 84h-532q-2 0 -5 -6t-5 -14.5t-4 -14.5t0 -6h184q14 0 10 -8l-424 -1354q-2 -8 -16 -8h-184q-4 -1 -10 -21 q-4 -13 -5 -17q0 -3 2 -3zM387 49l223 705h152q98 0 134 -32.5t36 -98.5q0 -55 -12.5 -123t-33 -135.5t-45 -126t-48.5 -95.5q-23 -35 -46.5 -55t-51 -30.5t-59.5 -13.5t-73 -3h-164q-12 0 -12 8zM623 797l190 606q4 8 16 8h56q92 0 134 -15t42 -85q0 -43 -12.5 -103.5 t-31 -121t-39 -112.5t-38.5 -79q-20 -31 -35.5 -49.5t-34 -29.5t-42 -15t-58.5 -4h-147z" />
<glyph unicode="C" horiz-adv-x="1255" d="M100 510q0 -127 34 -228.5t95.5 -172t149.5 -107.5t199 -37q166 0 310 88t261 252l-4 5t-10.5 11.5t-11.5 10.5t-5 2q-117 -168 -247 -248t-293 -80q-72 0 -119 18.5t-75 50t-39 76t-11 97.5q0 59 16.5 148t43 189.5t59 204t65.5 195.5t62.5 164t48.5 108 q53 94 121.5 140.5t183.5 46.5q82 0 139 -40t88 -103.5t36 -142.5q1 -14 1 -27q0 -65 -20 -127q0 -2 5 -3.5t13 -1.5t15.5 1t7.5 4l149 477q0 2 -6 2h-14h-15q-6 0 -6 -2q-12 -25 -35.5 -45.5t-81.5 -20.5q-31 0 -58.5 11.5t-59 24.5t-70.5 24.5t-88 11.5q-109 0 -213.5 -38 t-196.5 -105.5t-170 -160.5t-134 -202t-88 -228.5t-32 -242.5z" />
<glyph unicode="D" horiz-adv-x="1501" d="M-113 0h641q109 0 220.5 34t216 94t194.5 143t157.5 182.5t106.5 211t39 228.5q0 121 -42 223.5t-113.5 176t-169 115.5t-207.5 42h-586q-2 0 -5 -6t-5 -14.5t-4 -14.5t0 -6h184q12 0 10 -6l-426 -1356q0 -6 -14 -6h-184q-4 -1 -10 -21q-4 -13 -5 -17q0 -3 2 -3zM389 47 l426 1356q2 6 16 6h82q90 0 150.5 -18.5t97.5 -51t53.5 -79t16.5 -99.5q0 -57 -13.5 -137t-35 -168t-48 -179t-56 -172t-57.5 -144.5t-50 -98.5q-76 -117 -180.5 -169t-260.5 -52h-131q-11 0 -11 4q0 1 1 2z" />
<glyph unicode="E" horiz-adv-x="1308" d="M-115 0h1137q4 0 8 6l146 461q0 2 -6.5 3t-14.5 1q-6 0 -13 -1t-7 -3q-25 -78 -76 -154.5t-130 -137t-187.5 -97.5t-245.5 -37h-97q-12 0 -10 8l221 696h37q63 0 102 -24.5t58.5 -64.5t19.5 -91t-16 -102q0 -2 6 -3t14 -1t15.5 1t7.5 3l176 561q0 2 -6 2h-14h-17 q-6 0 -6 -2q-35 -106 -119 -172t-211 -66h-36l194 617q4 8 16 8h121q98 0 160 -34t92 -88q31 -53 32 -123v-6q0 -67 -22 -136q0 -2 5.5 -3t13.5 -1t15 1t7 3l119 422q0 6 -4 6h-1026q-2 0 -5 -6t-5 -14.5t-4 -14.5t0 -6h184q14 0 10 -8l-426 -1354q-2 -8 -14 -8h-184 q-2 0 -5.5 -6t-5.5 -14.5t-4 -14.5q-1 -3 -1 -4.5t1 -1.5z" />
<glyph unicode="F" horiz-adv-x="1206" d="M-111 4h684q2 0 4.5 6t5.5 14.5t4 14.5t-1 6h-185q-12 0 -12 6l221 699h52q61 0 101 -25t59.5 -64.5t19.5 -91.5q0 -51 -17 -102q0 -2 6.5 -3t14.5 -1t15 1t7 3l176 561q0 2 -6 2h-14h-16q-6 0 -7 -2q-33 -106 -117.5 -171.5t-211.5 -65.5h-47l192 616q4 8 17 8h129 q98 0 159.5 -33.5t91.5 -87.5q29 -54 30 -124v-7q0 -67 -21 -135q0 -2 6 -3t14 -1t15.5 1t7.5 3l118 422q0 6 -4 6h-1034q-2 0 -5 -6t-5 -14.5t-4 -14.5t0 -6h184q14 0 10 -8l-426 -1356q-4 -6 -16 -6h-182q-4 -1 -10 -21q-4 -13 -5 -17q0 -3 2 -3z" />
<glyph unicode="G" horiz-adv-x="1335" d="M100 512q0 -256 120 -401.5t343 -145.5q63 0 109.5 16.5t85.5 36t71.5 36t69.5 16.5q45 0 63.5 -22.5t10.5 -53.5q0 -2 6 -3t14 -1q10 0 17.5 1t7.5 3l170 532q2 8 14 9h184q2 0 5.5 6t5.5 14t4 14q1 3 1 4.5t-1 1.5h-686q-2 0 -4 -6t-5.5 -14t-4.5 -14t1 -6h185 q12 0 10 -9l-121 -379q-18 -61 -64 -100t-149 -39q-72 0 -117 18.5t-69.5 50.5t-33.5 76t-9 95q0 61 16.5 149t43 188.5t59 205t66.5 196.5t63.5 165t48.5 108q53 94 120.5 140t184.5 46q82 0 139.5 -41t88 -104.5t34.5 -142.5q1 -11 1 -22q0 -68 -21 -132q0 -4 20 -5 q20 0 21 5l151 479q0 2 -19.5 3t-21.5 -3q-12 -25 -36.5 -46.5t-80.5 -21.5q-31 0 -58.5 11.5t-59 25.5t-70.5 25.5t-88 11.5q-111 0 -215.5 -38t-196.5 -105.5t-170 -160.5t-134 -202t-88 -228.5t-32 -242.5z" />
<glyph unicode="H" horiz-adv-x="1593" d="M-115 0h647q2 0 5.5 6t5.5 14.5t4 14.5t0 6h-148q-12 0 -10 8l217 686h449l-215 -686q-2 -8 -17 -8h-147q-2 0 -4 -6t-5 -14.5t-4 -14.5t1 -6h647q4 0 10 20.5t2 20.5h-182q-12 0 -13 8l428 1354q4 8 17 8h184q2 0 4 6q2 7 5 15q4 12 4 17q0 3 -1 3h-647q-4 0 -10 -20.5 t-2 -20.5h145q14 0 11 -8l-197 -627h-453l199 627q4 8 14 8h148q4 0 10 20.5t2 20.5h-647q-2 0 -4 -6t-5 -14.5t-4 -14.5t1 -6h184q14 0 10 -8l-426 -1354q-2 -8 -16 -8h-182q-4 -1 -12 -21q-5 -13 -4 -18q0 -2 1 -2z" />
<glyph unicode="I" horiz-adv-x="856" d="M-113 0h686q2 0 4.5 6t5.5 14.5t4 14.5t-1 6h-185q-12 0 -10 8l426 1354q4 8 17 8h182q4 1 11 21q4 13 4 17q0 3 -1 3h-684q-2 0 -5 -6t-5 -14.5t-4 -14.5t0 -6h184q14 0 10 -8l-426 -1354q-2 -8 -14 -8h-184q-2 0 -5 -6t-5.5 -14.5t-4.5 -14.5q-1 -3 -1 -4.5t1 -1.5z " />
<glyph unicode="J" horiz-adv-x="1181" d="M-43 293q0 -70 21.5 -129.5t62.5 -103.5t99.5 -69.5t133.5 -25.5q207 0 356.5 110.5t227.5 356.5l307 971q0 8 15 8h184q2 0 4 6l5 15q4 12 4 17q0 3 -1 3h-684q-2 0 -4 -6t-5 -14.5t-4 -14.5t1 -6h184q14 0 10 -8l-385 -1221q-31 -98 -76.5 -138t-123.5 -40 q-76 0 -121 21.5t-45 74.5q0 76 65 88q27 6 47.5 22.5t35 38t20.5 45t6 46.5q0 27 -11.5 53.5t-32 47t-48 32.5t-58.5 12q-43 0 -77.5 -17t-59 -45t-39 -62.5t-14.5 -67.5z" />
<glyph unicode="K" horiz-adv-x="1398" d="M-115 0h643q4 0 11.5 20.5t3.5 20.5h-144q-12 0 -10 8l205 651l233 -645q6 -14 -14 -14h-162q-4 0 -10 -20.5t-2 -20.5h696q2 0 4 6t5.5 14.5t4.5 14.5t-1 6h-195q-14 0 -18 10l-304 830l467 444q53 49 76 67.5t45 18.5h146q2 0 5 6t5 14.5t4 14.5q1 3 1 4.5t-1 1.5h-422 q-2 0 -4 -6t-5 -14.5t-4 -14.5t1 -6h129q29 0 23.5 -18.5t-52.5 -61.5l-641 -600l211 672q4 8 16 8h183q4 0 11 20.5t3 20.5h-684q-2 0 -5 -6t-5 -14.5t-4 -14.5t0 -6h184q14 0 10 -8l-426 -1354q-2 -8 -14 -8h-184q-2 0 -5.5 -6t-5.5 -14.5t-4 -14.5q-1 -3 -1 -4.5t1 -1.5z " />
<glyph unicode="L" horiz-adv-x="1214" d="M-115 0h1098q4 0 8 6l146 461q0 2 -6.5 3t-14.5 1q-6 0 -13 -1t-7 -3q-25 -78 -76 -154.5t-130 -137t-186.5 -97.5t-244.5 -37h-60q-12 0 -12 8l426 1354q4 8 16 8h185q2 0 4 6t5 14.5t4 14.5t-1 6h-684q-2 0 -5 -6t-5 -14.5t-4 -14.5t0 -6h184q14 0 10 -8l-424 -1354 q-2 -8 -16 -8h-184q-4 -1 -10 -21q-4 -13 -5 -17q0 -3 2 -3z" />
<glyph unicode="M" horiz-adv-x="1822" d="M-104 0h438q2 0 4 6t5 14.5t4 14.5t-1 6h-184q-12 0 -10 8l417 1325l13 -1401q0 -4 20 -4t25 4l858 1395l-416 -1319q-2 -8 -14 -8h-185q-2 0 -5 -6t-5 -14.5t-4 -14.5t0 -6h686q2 0 4 6t5 14.5t4 14.5t-1 6h-184q-12 0 -10 8l426 1354q4 8 16 8h183q4 1 11 21q4 13 4 17 q0 3 -1 3h-494q-16 0 -39 -39l-616 -1001l2 1003q-4 37 -21 37h-477q-2 0 -5 -6t-5 -14.5t-4 -14.5t0 -6h184q14 0 11 -8l-426 -1354q0 -8 -15 -8h-184q-2 0 -5 -6t-5 -14.5t-4 -14.5q-1 -3 -1 -4.5t1 -1.5z" />
<glyph unicode="N" horiz-adv-x="1480" d="M-115 0h439q2 0 4 6t5 14.5t4 14.5t-1 6h-184q-12 0 -11 8l389 1231l431 -1307q2 -5 17 -5h6q20 1 22 5l450 1430q0 8 14 8h185q2 0 4 6q2 7 5 15q4 12 4 17q0 3 -1 3h-436q-2 0 -5 -6t-5 -14.5t-4.5 -14.5t0.5 -6h184q14 0 10 -8l-305 -967l-320 979q-10 37 -34 37h-373 q-2 0 -5 -6t-5 -14.5t-4.5 -14.5t0.5 -6h149q14 0 10 -8l-426 -1354q0 -8 -14 -8h-184q-2 0 -5.5 -6t-5.5 -14.5t-4 -14.5q-1 -3 -1 -4.5t1 -1.5z" />
<glyph unicode="O" d="M100 510q0 -127 34 -228.5t95.5 -172t150.5 -107.5t200 -37q164 0 314 83t266 220.5t184.5 312.5t68.5 359q0 127 -33.5 228.5t-95 172t-151 108.5t-199.5 38q-109 0 -213.5 -38t-196.5 -105.5t-170 -160.5t-134 -202t-88 -228.5t-32 -242.5zM334 248q0 59 16.5 148 t43 189.5t59 204t65.5 195.5t62.5 164t48.5 108q53 96 121.5 141.5t183.5 45.5q72 0 120 -18.5t76.5 -50.5t40 -76t11.5 -95q0 -61 -16.5 -149t-43 -188.5t-59.5 -205t-66.5 -196.5t-63.5 -164t-48 -108q-53 -94 -122 -140.5t-183 -46.5q-72 0 -119 18.5t-76 50t-40 76 t-11 97.5z" />
<glyph unicode="P" horiz-adv-x="1331" d="M-113 0h684q4 0 10.5 20.5t2.5 20.5h-183q-12 0 -12 8l176 555q55 -24 145 -24h7q137 0 258 43t211 115.5t141 165t51 190.5q0 92 -24.5 159.5t-79.5 111.5t-144.5 65.5t-216.5 21.5h-569q-2 0 -5 -6t-5 -14.5t-4 -14.5t0 -6h184q14 0 10 -8l-426 -1354q0 -8 -14 -8h-184 q-4 -1 -10 -21q-4 -13 -5 -17q0 -3 2 -3zM578 647l237 756q4 8 16 8h117q53 0 86 -7t50.5 -23.5t23.5 -42t6 -60.5q0 -51 -16.5 -128t-40 -156t-50 -145.5t-44.5 -96.5q-43 -66 -95.5 -98.5t-138.5 -32.5q-59 0 -90 6t-61 20z" />
<glyph unicode="Q" d="M100 510q0 -127 34 -228.5t95.5 -172t150.5 -108.5t200 -38q4 0 16 1t16 1q-33 -10 -83 -21.5t-104 -24.5t-104.5 -27.5t-82.5 -28.5q-35 -6 -57.5 -17.5t-22.5 -15.5q0 -16 8 -28.5t16 -12.5q10 0 35 15.5t66 15.5q74 0 123 -37t92 -93.5t92 -122t123.5 -121.5 t188.5 -93t286 -37q4 0 4 22q0 20 -4 21q-94 0 -152.5 40t-101.5 98.5t-82 127t-94.5 125.5t-135.5 94q-73 33 -185 33h-25q104 25 202.5 58.5t202.5 76.5q125 49 233.5 144.5t189.5 219.5t127 269t46 295q0 127 -33.5 228.5t-95 172t-151 108.5t-199.5 38 q-109 0 -213.5 -38t-196.5 -105.5t-170 -160.5t-134 -202t-88 -228.5t-32 -242.5zM334 248q0 59 16.5 148t43 189.5t59 204t65.5 195.5t62.5 164t48.5 108q53 96 121.5 141.5t183.5 45.5q72 0 120 -18.5t76.5 -50.5t40 -76t11.5 -95q0 -61 -16.5 -149t-43 -188.5t-59.5 -205 t-66.5 -196.5t-63.5 -164t-48 -108q-53 -94 -122 -140.5t-183 -46.5q-72 0 -119 18.5t-76 50t-40 76t-11 97.5z" />
<glyph unicode="R" horiz-adv-x="1357" d="M-115 0h684q2 0 5.5 6t5.5 14.5t4 14.5t0 6h-185q-12 0 -10 8l217 686h139q88 0 124 -22.5t36 -83.5q0 -33 -13 -85t-28.5 -110.5t-29 -117t-13.5 -101.5q0 -68 23.5 -116t62.5 -77.5t89.5 -43t103.5 -13.5q68 0 117 10.5t94 34.5q2 0 2 6q0 8 -2 15.5t-4 12.5t-4 5 q-31 -18 -60 -25.5t-69 -7.5q-45 0 -68 32t-23 85q0 33 11.5 80t26 98t25.5 102.5t11 94.5q0 106 -67.5 173t-225.5 73q117 8 201 41.5t138 86t80 118t26 137.5q0 147 -106.5 231t-311.5 84h-549q-2 0 -4 -6t-5 -14.5t-4 -14.5t1 -6h184q14 0 10 -8l-426 -1354q-2 -8 -16 -8 h-182q-4 -1 -12 -21q-5 -13 -4 -18q0 -2 1 -2zM616 776l199 627q4 8 14 8h89q86 0 119.5 -31t33.5 -92q0 -43 -11 -99t-28.5 -112.5t-37 -105.5t-38.5 -76q-41 -59 -80.5 -89t-111.5 -30h-148z" />
<glyph unicode="S" horiz-adv-x="1060" d="M-8 4q0 -2 20.5 -3t22.5 3q12 25 30.5 35t59.5 10q31 0 60.5 -13t66.5 -28.5t84 -29t113 -13.5q119 0 210 39t152 107.5t93 161t32 196.5q0 86 -33 154.5t-83 128t-108.5 111.5t-108.5 106.5t-83 114t-33 130.5q0 111 62.5 172.5t169.5 61.5q55 0 104 -23.5t81 -68.5 q32 -46 39 -112q1 -14 1 -29q0 -56 -20 -123q0 -4 20 -5q20 0 23 5l120 391q0 2 -6 3t-14 1q-6 0 -13 -1t-10 -3q-12 -23 -29.5 -35t-49.5 -12q-18 0 -41 8t-50.5 18.5t-61.5 18.5t-77 8q-92 0 -173 -40t-140.5 -106.5t-94 -153.5t-34.5 -179q0 -88 32.5 -157t82 -125 t105.5 -106.5t105.5 -102.5t82 -112.5t32.5 -136.5q0 -264 -284 -264q-92 0 -157 43t-99.5 110.5t-40.5 150.5q-1 14 0 28q0 69 22 135q0 2 -6 2h-14h-17q-6 0 -6 -2z" />
<glyph unicode="T" horiz-adv-x="1271" d="M81 3q0 -3 1 -3h684q4 0 10 20.5t2 20.5h-184q-12 0 -10 8l428 1354q4 8 14 8h21q113 0 175 -37q62 -36 84 -98q16 -44 17 -99q0 -23 -3 -45q-9 -82 -38 -169q0 -4 21 -5q23 0 22 5l152 483q3 3 3 4q0 2 -5 2h-1176q-8 0 -8 -6l-148 -465q0 -4 21 -4q23 0 22 4 q27 86 68 164t101.5 137t143.5 94t191 35h21q14 0 10 -8l-428 -1354q-2 -8 -14 -8h-185q-2 0 -4 -6q-2 -7 -5 -15q-4 -12 -4 -17z" />
<glyph unicode="U" horiz-adv-x="1507" d="M201 336q0 -78 22.5 -145.5t70.5 -117.5t125 -79t185 -29q229 0 370.5 117t207.5 328l315 993q0 8 14 8h168q3 1 9 21l4 16q0 4 -2 4h-404q-4 0 -9 -20.5t-1 -20.5h166q14 0 10 -8l-305 -961q-66 -211 -176.5 -310t-292.5 -99q-213 0 -213 211q0 104 49 256l283 903 q4 8 14 8h184q2 0 5.5 6t5.5 14.5t4 14.5t0 6h-686q-2 0 -4.5 -6t-5.5 -14.5t-4 -14.5t1 -6h185q14 0 10 -8l-273 -864q-16 -53 -24 -103.5t-8 -99.5z" />
<glyph unicode="V" horiz-adv-x="1316" d="M194 1414q0 -3 1 -3h184q14 0 14 -8v-1434q1 -4 21 -5h5q16 0 19 5l973 1356q29 41 49.5 63.5t36.5 22.5h174q2 0 4 6t4 14.5t3 14.5v3q0 3 -1 3h-448q-2 0 -4 -6t-5 -14.5t-4 -14.5t1 -6h174q14 0 10 -14.5t-43 -71.5l-690 -958v1036q0 8 12 8h164q2 0 4 6t5 14.5 t4 14.5t-1 6h-653q-2 0 -4 -6t-5 -14q-4 -12 -4 -18z" />
<glyph unicode="W" horiz-adv-x="1890" d="M197 1411h182q14 0 14 -8l62 -1434q-1 -4 21 -5h6q16 0 20 5l481 680l29 -680q2 -4 22 -5h6q16 0 19 5l926 1356q39 57 51 71.5t18 14.5h168q4 1 9 21q3 11 3 16q0 4 -2 4h-397q-2 0 -4 -6t-3 -14.5t-2 -14.5t1 -6h153q10 0 4 -13.5t-47 -72.5l-659 -960l-29 659l187 266 q31 39 48 62.5t29.5 37t19.5 17.5t17 4h140q2 0 4 6t4 14.5t3 14.5t-1 6h-1493q-4 0 -9 -20q-3 -11 -3 -17q0 -4 2 -4zM674 1403q0 8 12 8h252q12 0 12 -12l29 -686l-258 -363zM1231 1403q0 8 14 8h211q8 0 8 -8q0 -3 -1 -7q-5 -16 -42 -65l-174 -246z" />
<glyph unicode="X" horiz-adv-x="1406" d="M-92 0h414q2 0 4 6t5 14.5t4 14.5t-1 6h-139q-12 0 -17.5 2t-1.5 11t17.5 26.5t39.5 46.5l422 473l138 -551q0 -8 -11 -8h-194q-2 0 -4 -6t-5.5 -14.5t-4.5 -14.5t1 -6h719q2 0 4 6t5.5 14.5t4.5 14.5t-1 6h-207q-12 0 -17 8l-192 787l434 489q78 86 111 86h139q2 0 4 6 q2 7 5 15q4 12 4 17q0 3 -1 3h-411q-2 0 -5.5 -6t-5.5 -14.5t-4 -14.5t0 -6h139q29 0 26 -14.5t-42 -55.5l-405 -456l-129 518q0 8 10 8h176q4 0 10 20.5t2 20.5h-665q-2 0 -5.5 -6t-5.5 -14.5t-4 -14.5t0 -6h174q14 0 15 -8l186 -754l-465 -522q-45 -53 -69.5 -69.5 t-42.5 -16.5h-144q-2 0 -5 -6t-5 -14.5t-4 -14.5q-1 -3 -1 -4.5t1 -1.5z" />
<glyph unicode="Y" horiz-adv-x="1361" d="M170 0h686q4 0 9 20.5t1 20.5h-182q-12 0 -12 8l196 619l518 657q23 29 38.5 46.5t24.5 26.5t15 11t11 2h157q2 0 5 6t5.5 14.5t4.5 14.5q1 3 1 4.5t-1 1.5h-414q-2 0 -4 -6t-5 -14.5t-4 -14.5t1 -6h163q6 0 7.5 -2t-4 -11t-17.5 -25.5t-37 -47.5l-471 -598l-155 676 q-2 2 1 5t9 3h221q2 0 4 6t5 14.5t4 14.5t-1 6h-729q-4 0 -10 -20.5t-2 -20.5h188q14 0 15 -8l168 -731l-197 -623q-2 -8 -16 -8h-183q-2 0 -5 -6t-5 -14.5t-4 -14.5q-1 -3 -1 -4.5t1 -1.5z" />
<glyph unicode="Z" horiz-adv-x="1304" d="M-51 12q0 -12 4 -12h1026q6 0 6 6l148 461q0 4 -23 4q-20 0 -20 -4q-25 -78 -76 -154.5t-130 -137t-186.5 -97.5t-244.5 -37h-154q-12 0 -4 8l1104 1370q6 6 6 19q0 14 -4 14h-930q-2 0 -8 -6l-152 -483q0 -2 6.5 -3.5t14.5 -1.5t15 1.5t7 3.5q27 88 79 169.5t125 143 t162 98.5t193 37h144q6 0 7 -3t-1 -5l-1108 -1370q-6 -8 -6 -21z" />
<glyph unicode="[" horiz-adv-x="667" d="M-113 -489q-4 -8 7 -9h483q2 0 4 6.5t4 14.5t3 14t-1 6h-233q-14 0 -11 8l600 1907q2 8 15 8h237q2 0 4 6.5t4.5 14.5t3.5 14t-1 6h-482q-8 0 -10 -8z" />
<glyph unicode="\" horiz-adv-x="733" d="M-70 1544l654 -1591q0 -2 5 0t11 5t11 6t5 5l-649 1592q-2 4 -20.5 -4.5t-16.5 -12.5z" />
<glyph unicode="]" horiz-adv-x="667" d="M-360 -496h481q6 0 10 7l627 1990q4 8 -6 8h-484q-4 0 -9 -20.5t-1 -20.5h234q14 0 10 -8l-600 -1909q-4 -8 -17 -8h-235q-4 0 -9.5 -19.5t-0.5 -19.5z" />
<glyph unicode="^" horiz-adv-x="667" d="M176 1073q-2 -2 3 -6t12.5 -7t13.5 -5t8 0q74 63 132 117.5t116 109.5q18 -78 38.5 -132t47.5 -99l151 20q-16 39 -32.5 87t-29.5 99.5t-24.5 102.5t-15.5 96q0 4 -18.5 9t-22.5 3q-35 -37 -77 -85t-89 -100t-100 -106.5t-113 -103.5z" />
<glyph unicode="_" horiz-adv-x="1099" d="M72 20q0 -20 4 -20h928q4 0 4 20t-4 21h-928q-4 0 -4 -21z" />
<glyph unicode="`" horiz-adv-x="724" d="M330 1372q0 -31 14 -78t59.5 -98t129 -101.5t225.5 -82.5q2 0 4 6t5 13t4 15.5t-1 10.5q-74 16 -119 55t-73.5 86t-45 97.5t-30 92.5t-29.5 68.5t-47 26.5q-45 0 -70.5 -30t-25.5 -81z" />
<glyph unicode="a" horiz-adv-x="1095" d="M55 311q0 -61 13.5 -119.5t45 -105.5t83 -75.5t127.5 -28.5q92 0 157.5 50t116.5 148q-6 -25 -6 -49q0 -16 3 -31q7 -37 28.5 -62.5t56.5 -40.5t80 -15q39 0 80 15t79.5 43t72.5 66.5t57 83.5l-41 15q-33 -59 -77 -99t-95 -40q-29 0 -38.5 18t-2.5 41l243 772l-223 -29 l-43 -84q-10 51 -55 78t-99 27q-119 0 -221 -54.5t-178 -138.5t-120 -186t-44 -199zM272 168q0 63 16.5 155.5t48.5 185.5t77 175t100 125q37 27 60.5 35t43.5 8q59 0 94.5 -37t39.5 -96l-107 -334q-74 -186 -140.5 -269t-137.5 -83q-41 0 -68 27.5t-27 107.5z" />
<glyph unicode="b" horiz-adv-x="1044" d="M60 213v-13q0 -69 29 -116q32 -51 100.5 -76.5t181.5 -25.5q106 0 212.5 50t191.5 134t137.5 193.5t52.5 228.5q0 70 -25 126t-64.5 96t-90 60.5t-99.5 20.5q-78 0 -146.5 -47t-109.5 -125l246 782q-4 6 -6 6l-348 -4q-2 0 -6.5 -6t-7.5 -14t-4 -14.5t3 -6.5h113 q12 0 10 -8l-334 -1059q-33 -104 -36 -182zM266 209l105 313q59 170 130.5 242t147.5 72q59 0 81 -30t22 -116q0 -51 -16.5 -129t-41 -158.5t-54.5 -150.5t-56 -107q-55 -76 -104.5 -100.5t-104.5 -24.5q-69 0 -101 50q-18 28 -18 69q0 31 10 70z" />
<glyph unicode="c" horiz-adv-x="874" d="M55 324q0 -76 23.5 -139.5t66.5 -108.5t101.5 -69.5t128.5 -24.5q106 0 200.5 57t165.5 151l-34 21q-61 -82 -139.5 -136.5t-188.5 -54.5q-68 0 -94.5 36t-26.5 114q0 49 16.5 131t40 168t50 162t47.5 112q33 53 64.5 78t82.5 25q53 0 84 -16.5t31 -51.5q0 -20 -5 -32.5 t-12.5 -25.5t-12.5 -29.5t-5 -45.5q0 -33 22.5 -62.5t71.5 -29.5q47 0 79 25.5t32 78.5q0 39 -23.5 81t-62.5 76t-90.5 55.5t-106.5 21.5q-104 0 -196.5 -47t-161 -126t-108.5 -181.5t-40 -212.5z" />
<glyph unicode="d" horiz-adv-x="1075" d="M55 301q0 -66 15.5 -124t47.5 -101t80 -68.5t115 -25.5q43 0 83 17t76 46t64.5 65.5t47.5 77.5q-6 -29 -6 -55q0 -57 30 -95q44 -56 133 -56q27 0 68 12t85 36.5t85 63.5t70 94l-39 15q-39 -66 -82 -101.5t-88 -35.5q-29 0 -40.5 15t-6.5 38l436 1384v2q0 4 -4 4 l-351 -10q-4 0 -10 -20.5t-2 -20.5l111 2q12 0 12 -4l-205 -659q-12 45 -55 67.5t-96 22.5q-119 0 -223.5 -54.5t-182.5 -138.5t-123 -188.5t-45 -204.5zM272 164q0 63 17.5 156.5t49.5 187.5t77 175t100 124q35 31 60.5 35t41.5 4q70 0 105 -34q28 -28 28 -78q0 -11 -1 -23 l-91 -287q-29 -84 -65.5 -154.5t-76.5 -124t-82 -83t-85 -29.5q-41 0 -59.5 25.5t-18.5 105.5z" />
<glyph unicode="e" horiz-adv-x="876" d="M55 322q0 -76 23.5 -138.5t65.5 -107.5t100.5 -69.5t128.5 -24.5q106 0 189 45t155 131l-25 28q-66 -72 -136.5 -119t-176.5 -47q-70 0 -94.5 40t-24.5 116q0 53 12.5 121t34.5 131h39q104 0 194.5 18.5t156 53.5t102.5 84t37 110q0 80 -67 138.5t-196 58.5 q-102 0 -196 -47t-166 -127t-114 -182.5t-42 -212.5zM315 469q23 80 45.5 148.5t50 118.5t64.5 80t88 30q41 0 60.5 -23t19.5 -82q0 -53 -10 -101t-41 -87t-89.5 -61.5t-154.5 -22.5h-33z" />
<glyph unicode="f" horiz-adv-x="647" d="M-473 -440q0 -41 20.5 -78t54 -64.5t76.5 -44t89 -16.5q90 0 163.5 39t135 109.5t110.5 168t88 213.5q27 84 58.5 199t65.5 244t69 263t67 255h242l5 20q5 19 3 19h-237q2 4 8 27.5t14 50t14.5 49t8.5 26.5q45 141 82.5 227.5t71.5 133.5t64.5 62.5t59.5 15.5 q43 0 66.5 -22.5t23.5 -59.5q0 -29 -20.5 -64t-20.5 -76q0 -35 20.5 -55t74.5 -20q47 0 78.5 30.5t31.5 87.5q0 39 -16.5 78t-47 71t-75.5 51.5t-103 19.5q-86 0 -164.5 -38t-148.5 -105.5t-124 -162t-91 -208.5q-12 -29 -18.5 -54.5t-20.5 -64.5h-207q-2 0 -5 -6.5 t-7 -13.5t-6 -13t0 -6h213q-33 -117 -66.5 -255t-67.5 -277.5t-67 -271.5t-65 -237q-41 -123 -71 -201.5t-57.5 -124.5t-56 -64.5t-67.5 -18.5q-33 0 -59.5 19.5t-26.5 54.5q0 14 7 28.5t16 30.5t16.5 34.5t7.5 37.5q0 37 -24.5 59.5t-76.5 22.5q-45 0 -76.5 -33t-31.5 -92z " />
<glyph unicode="g" horiz-adv-x="1038" d="M-176 -377q0 -53 22.5 -101t62.5 -86t93 -60.5t115 -22.5q211 0 376.5 169t264.5 476l280 895l-225 -37l-31 -59q-18 39 -62 63.5t-102 24.5q-119 0 -221 -54.5t-178 -138.5t-120 -188.5t-44 -204.5q0 -61 13.5 -118.5t45 -101.5t83 -71.5t127.5 -27.5t144.5 49 t119.5 147l-35 -102q-72 -225 -125 -360.5t-101 -206t-95.5 -92t-104.5 -21.5q-90 0 -128 32.5t-38 73.5q0 51 51 64q29 4 50.5 37.5t21.5 72.5q0 43 -35 78t-82 35q-66 0 -104.5 -49t-38.5 -115zM268 166q0 90 19.5 187.5t54.5 185.5t81 158.5t99 107.5q49 41 107 41 q59 0 94 -34q33 -32 33 -87v-6l-105 -328q-78 -197 -150.5 -280.5t-150.5 -83.5q-41 0 -61.5 29.5t-20.5 109.5z" />
<glyph unicode="h" horiz-adv-x="1085" d="M-6 0h229l135 434q51 92 92.5 155.5t78 103.5t70.5 58.5t71 18.5t51 -24.5t14 -61.5q0 -68 -25.5 -138.5t-55 -140t-55.5 -137t-26 -129.5q0 -63 45.5 -110t129.5 -47t167 51t134 155l-37 15q-45 -74 -85 -107t-87 -33q-35 0 -49.5 23t-14.5 57q0 43 29 106.5t62.5 139.5 t62 157t28.5 161q0 90 -46 137t-128 47q-41 0 -86 -14.5t-92 -48t-97 -93t-101 -147.5l288 917l-4 2l-352 -6q-2 0 -4 -6t-5 -14t-4 -14.5t1 -6.5l112 2q12 0 11 -8z" />
<glyph unicode="i" horiz-adv-x="608" d="M68 707l41 -15q25 51 61.5 84t60.5 33q27 0 41.5 -14.5t14.5 -55.5q0 -59 -30 -133t-66.5 -151.5t-66.5 -156.5t-30 -148q0 -72 44 -120t130 -48q92 0 175 57t128 149l-36 15q-43 -78 -84 -109t-89 -31q-35 0 -48 23t-13 57q0 49 30.5 119t68.5 147.5t69 160.5t31 161 q0 63 -42 111.5t-120 48.5q-90 0 -161 -50t-109 -134zM371 1266q0 -47 35.5 -83t89.5 -36q49 0 83.5 36t34.5 83q0 53 -34.5 90t-83.5 37q-53 0 -89 -37t-36 -90z" />
<glyph unicode="j" horiz-adv-x="581" d="M-438 -451q0 -41 18.5 -75.5t49 -59t71.5 -39t84 -14.5q80 0 144.5 25.5t118.5 82t100.5 148.5t89.5 227l219 693q25 76 34 141q4 27 4 51q0 34 -7 61q-13 48 -50 74.5t-102 26.5q-78 0 -146.5 -48t-107.5 -132l39 -15q27 53 57.5 85t63.5 32q29 0 43 -25q7 -13 7 -30.5 t-7 -40.5l-320 -1018q-31 -98 -51 -157.5t-37.5 -91.5t-36 -42t-45.5 -10q-69 0 -69 68q0 29 19 57t19 69q0 35 -20 59.5t-72 24.5q-47 0 -78.5 -34.5t-31.5 -92.5zM373 1266q0 -47 35.5 -83t89.5 -36q49 0 83.5 36t34.5 83q0 53 -34.5 90t-83.5 37q-53 0 -89 -37t-36 -90z " />
<glyph unicode="k" horiz-adv-x="1073" d="M-6 0h231l154 496q47 -2 64.5 -41t25.5 -96.5t14 -124t31 -123t76 -93t149 -36.5q139 0 215 77.5t76 196.5q0 23 -8 47.5t-24.5 45t-39 33.5t-53.5 13q-49 0 -74.5 -30.5t-25.5 -65.5q0 -37 19.5 -54.5t44 -30.5t44 -28.5t19.5 -44.5q0 -41 -36 -70.5t-83 -29.5 q-61 0 -85 29q-22 28 -28 73q-4 29 -4 63q0 20 1 40q1 14 1 28q0 44 -7 86q-9 56 -41 106t-105 83q49 33 79.5 77t56.5 81.5t53.5 64.5t68.5 27q25 0 32 -13.5t7 -23.5q0 -12 -4 -18.5t-10.5 -12.5t-10.5 -14t-4 -25q0 -25 19.5 -46t62.5 -21q53 0 84 42t31 91q0 61 -42 97 t-106 36q-55 0 -94 -25.5t-70.5 -63.5t-59.5 -83t-61.5 -85t-76.5 -67.5t-107 -29.5l303 968q2 0 1 1t-5 1l-352 -6q0 -2 -3 -11t-6 -19.5t-1 -10.5l110 2q12 0 11 -8z" />
<glyph unicode="l" horiz-adv-x="608" d="M93 50q40 -68 138 -68q88 0 170 51t140 155l-45 15q-35 -61 -77 -100.5t-93 -39.5q-44 0 -44 45q0 15 5 35l430 1362h3l-1 1q-2 1 -6 1l-348 -6q-2 0 -5.5 -6t-5.5 -14t-4 -14.5t0 -6.5l115 2q4 0 7 -2t-1 -6l-377 -1202q-21 -67 -21 -118q0 -50 20 -84z" />
<glyph unicode="m" horiz-adv-x="1632" d="M49 0h230l135 434q57 102 99 168t75 102.5t59.5 51t54.5 14.5q54 0 68 -52q5 -17 4 -39q0 -46 -20 -116l-181 -563h232l127 412q53 100 95 169.5t76 110.5t61.5 59.5t49.5 18.5q39 0 53.5 -24.5t14.5 -61.5q0 -68 -25.5 -138.5t-55.5 -140t-55.5 -137t-25.5 -129.5 q0 -63 45 -110t129 -47t167 51t136 155l-36 15q-47 -74 -87 -107t-88 -33q-35 0 -49 23t-14 57q0 49 28.5 114t62.5 138.5t62.5 152.5t28.5 159q0 90 -45 137t-127 47t-169 -71.5t-177 -231.5q18 59 18 106q1 13 -1 26q-6 56 -31 94t-65 57.5t-87 19.5q-43 0 -85 -14.5 t-86 -48t-90 -93t-97 -147.5q23 71 23 124v11q-2 57 -22 94t-55.5 55.5t-80.5 18.5q-82 0 -149.5 -50t-106.5 -134l39 -15q31 66 60.5 91.5t59.5 25.5q31 -1 45 -27q6 -13 6 -28q0 -18 -8 -41z" />
<glyph unicode="n" horiz-adv-x="1140" d="M51 0h230l135 432q51 92 92 156.5t78 104.5t69.5 58.5t69.5 18.5t52.5 -24.5t15.5 -61.5q0 -68 -26 -138.5t-55.5 -140t-55 -137t-25.5 -129.5q0 -63 45 -110t129 -47t167 51t134 155l-37 15q-45 -74 -85 -107t-87 -33q-35 0 -49 23t-14 57q0 43 27.5 106.5t61 139.5 t62.5 157t29 161q0 88 -45 136t-127 48q-41 0 -86 -14.5t-93.5 -48t-98.5 -93t-101 -147.5q24 72 24 126q-1 3 -1 7q-2 57 -22 95t-54.5 56.5t-79.5 18.5q-82 0 -150.5 -50t-105.5 -134l39 -15q31 66 60.5 91.5t59.5 25.5q31 -1 45 -27q6 -13 6 -28q0 -18 -8 -41z" />
<glyph unicode="o" horiz-adv-x="991" d="M55 324q0 -76 23.5 -139.5t66.5 -108.5t101.5 -69.5t128.5 -24.5q102 0 196.5 47t166 125.5t114.5 179t43 209.5q0 76 -23.5 140.5t-66.5 110.5t-101.5 71.5t-128.5 25.5q-102 0 -196 -47t-166 -126t-115 -181.5t-43 -212.5zM262 176q0 41 14.5 121t36 165t45 158.5 t39.5 102.5q37 66 80 94.5t96 28.5q66 0 91.5 -40t25.5 -114q0 -41 -15.5 -119.5t-37 -163.5t-45 -159t-39.5 -105q-39 -66 -82 -95.5t-94 -29.5q-70 0 -92.5 40t-22.5 116z" />
<glyph unicode="p" horiz-adv-x="1120" d="M-150 -625h230l219 693q16 -39 61.5 -61.5t106.5 -22.5q111 0 211 54t177 140t123 189.5t46 201.5q0 61 -14.5 118.5t-46 103t-84 73t-125.5 27.5q-76 0 -146.5 -66.5t-128.5 -173.5q11 40 11 74q0 15 -2 29q-7 45 -29.5 75.5t-57 46t-73.5 15.5q-78 0 -148.5 -50 t-107.5 -132l39 -15q35 66 62.5 90.5t57.5 24.5q29 0 43 -25q8 -13 8 -29q0 -17 -8 -38zM322 131l88 287q29 70 64.5 144.5t76.5 136t86 101.5t92 40q39 0 57.5 -25.5t18.5 -105.5q0 -66 -17.5 -156t-48 -182t-71.5 -173t-86 -126q-23 -23 -47.5 -35t-57.5 -12 q-66 0 -105.5 24.5t-49.5 81.5z" />
<glyph unicode="q" horiz-adv-x="1042" d="M55 276q0 -61 18.5 -115.5t53.5 -94t85 -63t114 -23.5q80 0 152.5 56t111.5 154l-260 -819h231l479 1526l-223 -33l-43 -84q-10 53 -54 80t-91 27q-123 0 -228.5 -55.5t-182.5 -142.5t-120 -196.5t-43 -216.5zM274 164q0 66 16.5 158t48.5 185t77 175t100 125 q49 39 102 39q59 0 96 -40q36 -38 36 -93v-6l-111 -342q-59 -160 -133 -247t-144 -87q-47 0 -67.5 27.5t-20.5 105.5z" />
<glyph unicode="r" horiz-adv-x="899" d="M49 0h232l114 369q100 217 160.5 315t108.5 98q31 0 41 -14t10 -41q0 -23 -12.5 -37t-12.5 -45q0 -35 26.5 -61.5t80.5 -26.5q25 0 47 14.5t38.5 36t26 49t9.5 56.5q0 78 -46.5 128t-123.5 50q-76 0 -143.5 -68.5t-133.5 -214.5q15 62 16 109q0 8 -1 16q-3 53 -24.5 88 t-56 52.5t-77.5 17.5q-80 0 -147.5 -50t-108.5 -134l39 -15q29 61 59.5 89t60.5 28q31 -1 45 -27q6 -13 6 -28q0 -18 -8 -41z" />
<glyph unicode="s" horiz-adv-x="772" d="M-2 186q0 -47 21.5 -83.5t59.5 -64.5t89 -42t111 -14q82 0 146 22.5t109.5 59t69 86t23.5 104.5q0 61 -20.5 108.5t-51.5 84t-67.5 68.5t-67.5 63.5t-51.5 66.5t-20.5 80q0 123 131 123q106 0 107 -64q0 -14 -6.5 -25t-14.5 -22.5t-14 -24t-6 -30.5q0 -35 21.5 -57.5 t68.5 -22.5q43 0 69.5 27t26.5 80q0 41 -19.5 74.5t-53 57t-76.5 37t-90 13.5q-63 0 -121 -23.5t-101 -63.5t-67.5 -91t-24.5 -109q0 -80 40 -130t89 -92t89 -90t40 -124q0 -66 -37 -105.5t-123 -39.5q-72 0 -101.5 19t-29.5 60q0 20 8.5 29.5t19.5 21t19.5 27t8.5 47.5 q0 29 -22.5 62t-74.5 33q-47 0 -76.5 -41t-29.5 -95z" />
<glyph unicode="t" horiz-adv-x="618" d="M94 260q-18 -60 -18 -108q0 -54 23 -94q44 -76 141 -76q88 0 164.5 51t130.5 155l-39 15q-43 -78 -84 -109t-88 -31q-29 0 -39.5 18.5t-1.5 47.5l225 715h154q2 0 5 7t5 15q3 13 3 20q0 3 -1 3h-152l94 299l-233 -8l-90 -291h-148q-2 0 -5 -7.5t-5 -15.5t-3 -15t1 -7h148 z" />
<glyph unicode="u" horiz-adv-x="1122" d="M74 709l39 -15q29 59 59.5 89t58.5 30q45 0 45 -63q0 -43 -28.5 -110t-62 -145.5t-61.5 -163.5t-28 -163q0 -90 51.5 -138t133.5 -48q41 0 85 14t89 49t93 93.5t99 146.5q-24 -71 -24 -124q1 -7 1 -13q4 -58 27 -95t62 -54t82 -17q76 0 152.5 49t131.5 157l-41 15 q-41 -76 -77.5 -106.5t-83.5 -30.5q-55 0 -55 38q0 12 5 27l236 754l-234 -13l-135 -434q-102 -182 -169.5 -259t-137.5 -77q-39 0 -54.5 25t-15.5 61q0 68 26 138.5t56.5 140.5t56 137.5t25.5 128.5q0 72 -39 115t-120 43q-76 0 -141.5 -45t-106.5 -137z" />
<glyph unicode="v" horiz-adv-x="1044" d="M53 707l41 -15q23 49 55.5 83t61.5 34q33 0 43 -11.5t10 -43.5q0 -70 -18.5 -138.5t-42 -135t-42 -129t-18.5 -118.5q0 -117 59.5 -184t188.5 -67q92 0 197.5 64.5t193.5 168.5t146.5 237.5t58.5 272.5q0 66 -29.5 116t-97.5 50q-47 0 -74.5 -41t-27.5 -96q0 -43 4 -73 t9 -60.5t9 -69.5t4 -98q0 -88 -31.5 -162t-79.5 -127t-107.5 -83t-114.5 -30t-81 29t-26 106q0 55 19.5 117t43 129.5t43 138t19.5 144.5q0 76 -36 126t-126 50q-78 0 -146.5 -48t-107.5 -136z" />
<glyph unicode="w" horiz-adv-x="1497" d="M53 709l41 -15q29 57 59.5 87t57.5 30t37 -14.5t10 -48.5q0 -43 -28.5 -108t-62.5 -143.5t-61.5 -164.5t-27.5 -172q0 -92 49 -136t137 -44q41 0 90 21.5t96.5 57t87.5 81.5t64 98q-6 -27 -6 -52q0 -30 8 -56q16 -48 52 -82t87.5 -51t110.5 -17q92 0 194.5 64.5 t190.5 168.5t145.5 238.5t57.5 273.5q0 66 -32 115t-97 49q-49 0 -72.5 -41t-23.5 -96q0 -41 3 -72t8 -61.5t8 -69.5t3 -98q0 -86 -30.5 -159t-79 -127t-108.5 -85t-118 -31q-72 0 -91 44q-8 19 -8 44q0 35 15 84l201 658l-234 -9l-143 -477q-72 -158 -139.5 -234.5 t-126.5 -76.5q-78 0 -78 94q0 68 25.5 140.5t55.5 144t55.5 140.5t25.5 132q0 70 -39 113t-121 43q-76 0 -141.5 -45t-106.5 -135z" />
<glyph unicode="x" horiz-adv-x="1056" d="M-70 145q0 -37 16.5 -67.5t43 -52t59.5 -32.5t66 -11q86 0 168 74.5t159 240.5q37 -162 106.5 -238.5t156.5 -76.5q98 0 167.5 57t106.5 162l-43 16q-29 -66 -60.5 -96.5t-76.5 -30.5t-92.5 80t-81.5 276q0 4 -5.5 27t-5.5 27q63 139 106.5 205.5t94.5 66.5q29 0 37 -9 t8 -36q0 -25 -8 -37t-8 -39q0 -37 21.5 -58.5t68.5 -21.5q20 0 41.5 10.5t40 29t30 47t11.5 65.5q0 61 -38 114.5t-110 53.5q-88 0 -161.5 -79t-149.5 -243q-18 90 -39.5 151.5t-49.5 99.5t-62.5 54.5t-79.5 16.5q-68 0 -130.5 -47t-107.5 -135l35 -31q27 51 50.5 76.5 t53.5 25.5q25 0 41.5 -11t31.5 -48t31.5 -105.5t37.5 -183.5q4 -29 7 -47t7 -39q-39 -80 -68.5 -132t-55.5 -84t-51.5 -45t-55.5 -13q-35 0 -50.5 21.5t-15.5 43.5q0 29 12.5 45.5t12.5 48.5q0 27 -21.5 51.5t-64.5 24.5q-55 0 -95.5 -45t-40.5 -117z" />
<glyph unicode="y" horiz-adv-x="950" d="M-262 -442q0 -43 19.5 -80t51 -63.5t73.5 -42t87 -15.5q90 0 159 43t128 130t118.5 217t131.5 304q84 207 140 334t103.5 202t94.5 109.5t114 55.5q29 12 50.5 28.5t21.5 53.5q0 25 -13 41t-48 16q-96 0 -190.5 -145.5t-219.5 -448.5l-53 248q-18 76 -37.5 139.5 t-45.5 109.5t-59.5 71.5t-80.5 25.5q-78 0 -142.5 -52.5t-111.5 -144.5l28 -24q29 45 50.5 65.5t50.5 20.5q20 0 40.5 -11.5t40 -45t39 -96t37.5 -167.5l88 -508q-55 -129 -103 -228t-96 -167t-102.5 -101.5t-121.5 -33.5q-33 0 -53.5 15.5t-20.5 54.5q0 27 22.5 60.5 t22.5 72.5q0 37 -22.5 63.5t-75.5 26.5q-49 0 -82 -36t-33 -97z" />
<glyph unicode="z" horiz-adv-x="907" d="M-31 10l35 -35q80 98 178 99q45 0 91 -14.5t92.5 -32t94.5 -31.5t95 -14q57 0 108.5 16t89.5 48t59.5 77t21.5 102q0 37 -13.5 73t-37 64.5t-57.5 46t-77 17.5q-47 0 -76.5 -27.5t-29.5 -74.5q0 -35 18.5 -54.5t52.5 -19.5q25 0 42.5 5t30.5 12t25.5 12.5t24.5 5.5 q47 0 47 -74q0 -53 -28.5 -84t-89.5 -31q-33 0 -74 22.5t-89 50.5t-101.5 51.5t-110.5 23.5q-27 0 -47 -11l630 646l-30 22l-25 -24q-37 -35 -74.5 -62t-97.5 -27q-59 0 -152.5 25t-230.5 90l-137 -338l39 -14l55 143q76 -35 149.5 -46t131.5 -11q29 0 55.5 6t44.5 19z" />
<glyph unicode="{" horiz-adv-x="630" d="M-72 -186q0 -63 24.5 -119.5t70 -100t108 -68t137.5 -24.5h19q2 0 4 6.5t3 14.5t2 14t-1 6h-16q-88 0 -114 37t-26 103q0 59 17.5 125.5t44 133t58.5 133t58.5 128t44 114t17.5 93.5q0 39 -14.5 68.5t-49.5 41.5q68 10 106 60.5t54 97.5q16 57 27.5 136t22 161 t21.5 157.5t27 129.5q18 57 42 96t55.5 63.5t72.5 34.5t95 10h16q8 0 12 20.5t0 20.5h-20q-113 0 -212 -30.5t-174 -88t-118 -140.5t-43 -189q0 -66 11.5 -118t24.5 -99t24.5 -95.5t11.5 -103.5q0 -43 -21.5 -68.5t-38.5 -29.5q-10 -4 -16 -4h-8q-16 0 -28.5 2t-22.5 2 q-6 0 -15.5 -10.5t-9.5 -14.5t4 -15t10 -11q10 0 22.5 2t28.5 2q12 0 17 -2q25 -6 24 -33q0 -31 -28.5 -70t-71.5 -87t-94 -103.5t-94 -117.5t-72 -131t-29 -140z" />
<glyph unicode="|" horiz-adv-x="327" d="M147 -47q0 -4 19 -4q20 0 20 4v1593q0 4 -20 4q-18 0 -19 -4v-1593z" />
<glyph unicode="}" horiz-adv-x="630" d="M-256 -476.5q-4 -19.5 0 -19.5h20q113 0 212.5 31t174 89.5t117.5 141t43 189.5q0 63 -11 115.5t-24.5 100.5t-24.5 96t-11 104q0 43 21.5 68.5t37.5 29.5q10 4 14 4h11q16 0 28.5 -2t22.5 -2q6 0 15 10t9 15q0 4 -4 15t-10 11q-10 0 -22.5 -2t-28.5 -2q-12 0 -17 2 q-25 6 -24 31q0 31 28.5 69.5t71.5 87t94.5 104.5t94.5 118.5t71.5 130t28.5 141.5q0 63 -24.5 119.5t-69.5 98.5t-107.5 66.5t-138.5 24.5h-18q-2 0 -4.5 -6t-3.5 -14t-2 -14.5t1 -6.5h17q88 0 113.5 -36.5t25.5 -102.5q0 -59 -17.5 -124.5t-44 -133t-58.5 -133.5 t-58.5 -127t-44 -114.5t-17.5 -94.5q0 -37 14.5 -66.5t49.5 -41.5q-68 -10 -105.5 -60.5t-54.5 -97.5q-16 -59 -27.5 -137t-21.5 -160t-21.5 -159t-27.5 -130q-39 -115 -97.5 -161t-166.5 -46h-17q-8 0 -12 -19.5z" />
<glyph unicode="~" horiz-adv-x="892" d="M98 590q0 -4 21 -4q20 0 20 4q0 51 31 88t100 37q35 0 74 -16.5t83 -37t92 -37t99 -16.5q59 0 106.5 19.5t81.5 53.5t51 79t17 94q0 4 -22 4q-20 0 -21 -4q0 -51 -29.5 -88t-99.5 -37q-35 0 -73.5 17.5t-82.5 37t-92 37t-100 17.5q-59 0 -106 -20.5t-81 -54.5t-51.5 -79 t-17.5 -94z" />
<glyph unicode="&#xa1;" horiz-adv-x="602" d="M-104 -614q0 -45 25.5 -76t76.5 -31q57 0 112.5 39t90.5 147q25 74 40 183.5t31.5 236.5t41 266.5t65.5 274.5q2 2 -3 4t-14 2q-8 0 -16 -2t-10 -4q-27 -90 -70 -191.5t-92 -205t-99 -203.5t-90 -185t-64.5 -152t-24.5 -103zM322 629q0 -41 25.5 -67.5t62.5 -26.5 q59 0 103 48t44 111q0 41 -25.5 67.5t-66.5 26.5q-29 0 -54.5 -13t-45 -34.5t-31.5 -51.5t-12 -60z" />
<glyph unicode="&#xa2;" horiz-adv-x="874" d="M55 324q0 -131 69 -221.5t179 -112.5l-6 -24q-6 -23 -13.5 -51t-13.5 -51l-6 -24q0 -4 23 -4t22 4l39 144q6 -2 12 -2h15q106 0 200.5 57t165.5 151l-34 21q-61 -82 -139.5 -136.5t-188.5 -54.5h-21l16 62q17 61 41.5 153.5t52.5 199t52.5 197.5t41.5 152l16 62 q45 -4 70.5 -19.5t25.5 -48.5q0 -20 -5 -32.5t-12.5 -25.5t-12.5 -29.5t-5 -45.5q0 -33 22.5 -62.5t71.5 -29.5q47 0 79 25.5t32 78.5q0 37 -20.5 76t-56.5 72t-82 55.5t-97 28.5l39 143q0 2 -6.5 3t-14.5 1t-16 -1t-8 -3l-37 -141q-102 -4 -191.5 -52t-155 -127 t-104.5 -179.5t-39 -208.5zM258 170q0 49 16.5 131t40 168t50 162t47.5 112q27 45 54 71t66 32l-217 -813q-33 14 -45 48t-12 89z" />
<glyph unicode="&#xa3;" horiz-adv-x="1251" d="M-16 76q0 -59 39.5 -85t89.5 -26q70 0 126 30t115 83q88 -39 190.5 -76t219.5 -37q80 0 142.5 27.5t106.5 72t68.5 101.5t24.5 117q0 4 -20.5 5t-22.5 -3q0 -55 -36 -97.5t-112 -42.5t-134 8.5t-108 21.5t-98.5 27.5t-103.5 26.5q262 188 299 476h227q4 0 9.5 17t1.5 17 h-230q18 233 46 372.5t63 213.5t79 96.5t97 22.5q74 0 74 -88q0 -27 -21.5 -64t-21.5 -78q0 -37 23.5 -60.5t76.5 -23.5q45 0 84 34t39 114q0 41 -17.5 79t-49 66.5t-77 45t-100.5 16.5q-96 0 -184 -43t-161 -117t-125 -173t-73 -210q-10 -57 -13 -103t-3 -100h-231 q-4 0 -9.5 -17t-1.5 -17h240q0 -119 -1 -195t-9 -125t-23.5 -80t-42.5 -61q-41 8 -89 17t-107 9q-61 0 -108.5 -19.5t-80.5 -49t-50 -63.5t-17 -62zM29 68q0 45 24.5 64.5t67.5 19.5q49 0 89.5 -14.5t106.5 -43.5q-47 -47 -101 -66.5t-99 -19.5q-39 0 -63.5 15.5t-24.5 44.5 z" />
<glyph unicode="&#xa5;" horiz-adv-x="1310" d="M120 489.5q-1 -6.5 1 -6.5h397l-139 -438q0 -4 -14 -4h-185q-4 0 -11 -20.5t-3 -20.5h637q2 0 5 6t5 14.5t4 14.5t0 6h-180q-12 0 -12 4l135 438h397q4 0 10.5 19.5t1.5 19.5h-397l43 144l64 71h360q4 0 8 20.5t0 20.5h-340l428 543q23 29 38.5 45t24.5 24.5t15 10.5 t10 2h156q4 0 11 20.5t3 20.5h-430q-2 0 -4 -6t-5 -14.5t-4 -14.5t1 -6h180q10 0 3 -11.5t-54 -70.5l-469 -596l-137 674q-4 4 10 4h184q2 0 4 6t5.5 14.5t4.5 14.5t-1 6h-631q-2 0 -4 -6t-5 -14.5t-4 -14.5t1 -6h172q14 0 14 -4l129 -621h-342q-2 0 -4 -6t-4 -14t-3 -14.5 t1 -6.5h362l12 -69l-45 -146h-399q-2 0 -4 -6t-4 -13t-3 -13.5z" />
<glyph unicode="&#xa7;" horiz-adv-x="1167" d="M-186 -360q0 -53 26.5 -105.5t75.5 -93.5t117.5 -66.5t152.5 -25.5q131 0 230.5 48t166 121.5t100.5 161t34 162.5q0 53 -7.5 91t-29.5 81q80 18 145.5 56.5t111.5 92.5t71.5 120.5t25.5 144.5q0 86 -28.5 155.5t-72.5 131t-95.5 117t-95.5 111.5t-72.5 116.5 t-28.5 132.5q0 156 79 221.5t212 65.5q68 0 120 -19.5t87 -50.5t53 -68.5t18 -74.5q0 -41 -9 -68t-40 -27q-18 0 -30.5 4.5t-22.5 10.5t-20.5 10t-26.5 4q-29 0 -48.5 -20.5t-19.5 -63.5q0 -39 24.5 -60.5t61.5 -21.5q70 0 124 54.5t54 158.5q0 51 -23.5 100.5t-65.5 88.5 t-100 61.5t-130 22.5q-102 0 -194.5 -40t-163 -106.5t-111.5 -152.5t-41 -179q0 -59 10.5 -100t32.5 -86q-74 -18 -139.5 -59t-114.5 -98.5t-78.5 -129t-29.5 -153.5t28.5 -146.5t72.5 -119t95 -101.5t95 -98t73 -108.5t29 -129.5q0 -59 -14.5 -116.5t-50.5 -103.5 t-95 -74.5t-149 -28.5q-74 0 -135.5 21.5t-105.5 55t-68.5 75.5t-24.5 83t15 71t50 30q20 0 33.5 -5.5t25 -11.5t22.5 -11t30 -5q29 0 50 23.5t21 70.5q0 41 -30.5 67.5t-71.5 26.5q-76 0 -133 -65.5t-57 -175.5zM317 573q0 104 47.5 165t124.5 75q39 -74 93.5 -133 t104.5 -114.5t86 -111.5t36 -124q0 -86 -37 -165t-108 -112q-41 84 -100.5 148.5t-114 122t-93.5 117t-39 132.5z" />
<glyph unicode="&#xa8;" horiz-adv-x="899" d="M322 1184q0 -35 22.5 -58.5t56.5 -23.5q47 0 85 41t38 96q0 35 -21.5 56.5t-53.5 21.5q-49 0 -88 -39t-39 -94zM715 1184q0 -35 22.5 -58.5t55.5 -23.5q49 0 85.5 41t36.5 96q0 35 -21.5 56.5t-53.5 21.5q-49 0 -87 -39t-38 -94z" />
<glyph unicode="&#xa9;" horiz-adv-x="1691" d="M170 725q0 -158 58.5 -296t157.5 -241.5t233.5 -163t285.5 -59.5q152 0 286 59.5t233.5 163t157.5 241.5t58 296t-58 297t-157.5 242.5t-233.5 163t-286 59.5t-286 -59.5t-233 -163t-157.5 -242.5t-58.5 -297zM215 725q0 150 54.5 280t147.5 227t219 153.5t269 56.5 t269 -56.5t220.5 -153.5t148.5 -227t54 -280q0 -147 -54 -278.5t-148.5 -228.5t-220 -153.5t-269.5 -56.5q-143 0 -269 56.5t-219 153.5t-147.5 228.5t-54.5 278.5zM512 737q0 -92 29.5 -175t82 -145.5t125 -99t156.5 -36.5q25 0 53.5 6t57 13t54.5 13t46 6q25 0 38 -13 t15 -23q2 -2 19 -2q16 0 20 2v342q-4 2 -22 2q-16 0 -17 -2q0 -61 -21.5 -116.5t-57 -97.5t-84 -68t-101.5 -26q-41 0 -72.5 9.5t-56.5 38.5q-43 41 -58.5 130t-15.5 242q0 150 15.5 241t58.5 132q25 25 53.5 34t69.5 9q43 0 88 -24.5t80 -63.5t57.5 -87t22.5 -93 q0 -2 16 -2q18 0 23 2v305q-4 2 -23 2q-16 0 -16 -2q-4 -10 -19.5 -20.5t-37.5 -10.5q-41 0 -94.5 17.5t-96.5 17.5q-84 0 -155.5 -37t-123 -100.5t-80 -145.5t-28.5 -174z" />
<glyph unicode="&#xaa;" horiz-adv-x="757" d="M162 1059q0 -49 12 -95t37 -81t60.5 -56.5t82.5 -21.5q106 0 172 127q-4 -66 33 -96.5t78 -30.5q76 0 133 40t92 132l-39 10q-31 -61 -52 -85.5t-58 -24.5t-25 49l168 583l-172 -18l-16 -57q-4 29 -34 50t-65 21q-80 0 -153.5 -42t-130 -107.5t-90 -144t-33.5 -152.5z M319 954q0 47 11.5 116t32 138.5t50 131t68.5 92.5q23 20 41.5 26t40.5 6q47 0 66.5 -29.5t15.5 -76.5l-84 -289q-33 -86 -81 -149.5t-101 -63.5q-33 0 -46.5 22.5t-13.5 75.5z" />
<glyph unicode="&#xab;" horiz-adv-x="915" d="M100 449q-8 -4 2 -9q16 -10 52 -41.5t68 -77t49.5 -101.5t-1.5 -114q0 -6 6.5 -10t15.5 -6t17 -1t8 5q14 49 19.5 100.5t3.5 98.5t-11.5 83t-21.5 54q23 18 54.5 53t63.5 79t59.5 93.5t43.5 98.5q0 4 -6 8t-15 6t-18 2q-8 0 -10 -6q-18 -59 -70.5 -111.5t-112.5 -94.5 t-115.5 -70.5t-80.5 -38.5zM453 449q-8 -4 2 -9q16 -10 52 -41.5t67.5 -77t49 -101.5t-0.5 -114q0 -6 6 -10t15 -6t17.5 -1t8.5 5q14 49 19 100.5t3 98.5t-11 83t-22 54q23 18 54.5 53t63.5 79t60 93.5t44 98.5q0 4 -6.5 8t-15.5 6t-17 2t-11 -6q-18 -59 -70 -111.5 t-112.5 -94.5t-116 -70.5t-79.5 -38.5z" />
<glyph unicode="&#xad;" horiz-adv-x="659" d="M55 422h512q4 35 12.5 68.5t24.5 56.5q8 8 0 8h-512q-4 -35 -12 -68.5t-25 -56.5q-4 -8 0 -8z" />
<glyph unicode="&#xae;" horiz-adv-x="1691" d="M170 725q0 -158 58.5 -296t157.5 -241.5t233.5 -163t285.5 -59.5q152 0 286 59.5t233.5 163t157.5 241.5t58 296t-58 297t-157.5 242.5t-233.5 163t-286 59.5t-286 -59.5t-233 -163t-157.5 -242.5t-58.5 -297zM215 725q0 150 54.5 280t147.5 227t219 153.5t269 56.5 t269 -56.5t220.5 -153.5t148.5 -227t54 -280q0 -147 -54 -278.5t-148.5 -228.5t-220 -153.5t-269.5 -56.5q-143 0 -269 56.5t-219 153.5t-147.5 228.5t-54.5 278.5zM537 322q0 -20 2 -21h383v41h-91q-8 0 -8 4v371h62q82 0 125 -35t43 -117v-47q0 -66 19.5 -111t51 -73.5 t69.5 -40.5t75 -12q41 0 66.5 11.5t43.5 31.5q2 0 -7 16t-11 14q-10 -12 -27.5 -23.5t-38.5 -11.5q-29 0 -47 19.5t-18 67.5v110q0 45 -13.5 86t-46 72t-85 48t-128.5 17q55 0 99.5 18.5t75 48.5t46 69.5t15.5 82.5q0 92 -75 152.5t-206 60.5h-372q-2 0 -2 -20t2 -21h104h4 t4 -4v-780q0 -2 -4 -3l-4 -1h-104q-2 0 -2 -20zM823 758v368q0 4 8 4h48q43 0 69.5 -6t43 -24.5t22.5 -53.5t6 -92q0 -59 -5 -97t-19.5 -60.5t-41 -30.5t-69.5 -8h-62z" />
<glyph unicode="&#xaf;" horiz-adv-x="819" d="M276 1208h656q6 29 0 58h-656q-6 -29 0 -58z" />
<glyph unicode="&#xb0;" horiz-adv-x="579" d="M334 1266q0 -59 36 -96t97 -37q43 0 81 16t65.5 45t44 66.5t16.5 80.5q0 61 -36 98.5t-97 37.5q-43 0 -81 -16.5t-65.5 -45.5t-44 -67.5t-16.5 -81.5zM379 1274q0 66 45 113t104 47q43 0 72 -25t29 -72q0 -33 -12.5 -62.5t-33 -51t-48 -34.5t-56.5 -13q-43 0 -71.5 24.5 t-28.5 73.5z" />
<glyph unicode="&#xb4;" horiz-adv-x="724" d="M205 1032q160 29 280.5 76t201.5 98t122 100.5t41 84.5q0 41 -23.5 62.5t-58.5 21.5q-45 0 -84 -51.5t-95.5 -119t-144.5 -134t-231 -97.5q-4 -2 -8 -21.5t0 -19.5z" />
<glyph unicode="&#xb6;" horiz-adv-x="1343" d="M162 555q0 -121 42 -222.5t113.5 -175t169 -115.5t205.5 -42h438q4 0 10.5 20.5t2.5 20.5h-166q-12 0 -10 8l428 1350q4 8 14 8h166q2 0 4 6t5 13.5t4 13.5t-1 6h-491q-111 0 -222.5 -34t-215 -93t-193.5 -142t-157.5 -182.5t-106.5 -211t-39 -228.5zM782 47l424 1352 q2 6 17 6h116q13 0 11 -6l-428 -1352q-4 -6 -17 -6h-112q-14 0 -11 6z" />
<glyph unicode="&#xb7;" horiz-adv-x="370" d="M104 692q0 -41 26 -66.5t65 -25.5q57 0 100 47.5t43 110.5q0 41 -25.5 68.5t-60.5 27.5q-31 0 -57.5 -13.5t-46 -36t-32 -52t-12.5 -60.5z" />
<glyph unicode="&#xb8;" horiz-adv-x="591" d="M-78 -336q0 -53 37 -93t107 -40q78 0 126 48t48 114q0 39 -14.5 66.5t-33 50t-33 47t-14.5 59.5q0 23 10.5 36t20.5 19q2 2 -2 6.5t-10 8.5t-12.5 7t-8.5 1q-10 -6 -24.5 -20.5t-28.5 -33t-23.5 -41t-9.5 -46.5q0 -35 16.5 -62t37 -49.5t37 -43t16.5 -42.5q0 -84 -96 -84 q-35 0 -55.5 19.5t-20.5 41.5q0 16 18.5 27.5t18.5 38.5q0 23 -12.5 35t-30.5 12q-27 0 -45.5 -26.5t-18.5 -55.5z" />
<glyph unicode="&#xba;" horiz-adv-x="720" d="M164 1075q0 -123 62.5 -196.5t166.5 -73.5q68 0 134.5 37t118.5 98t85 138t33 157q0 121 -65.5 195.5t-161.5 74.5q-68 0 -135.5 -36.5t-120 -98t-85 -138.5t-32.5 -157zM311 961q0 35 6.5 87t18.5 110.5t29.5 116.5t40.5 105q29 47 57.5 65.5t68.5 18.5q51 0 65.5 -34.5 t14.5 -79.5q0 -35 -6 -88.5t-18.5 -112.5t-29.5 -117.5t-40 -105.5q-29 -47 -57.5 -63.5t-69.5 -16.5q-53 0 -66.5 34.5t-13.5 80.5z" />
<glyph unicode="&#xbb;" horiz-adv-x="915" d="M33 115q0 -4 6 -8.5t15 -6.5t18 -2q8 0 10 6q18 59 70.5 111.5t113 94.5t115.5 71t80 39q8 4 -2 8q-16 10 -52 42t-68 77t-49.5 100t1.5 115q0 6 -6 10t-15.5 6t-17.5 1t-8 -5q-16 -49 -20.5 -100t-2.5 -98.5t11.5 -83t21.5 -54.5q-23 -18 -54.5 -53t-63.5 -79t-60.5 -93 t-42.5 -98zM385 115q0 -4 6 -8.5t15.5 -6.5t17.5 -2t10 6q18 59 70.5 111.5t113 94.5t115.5 71t80 39q8 4 -2 8q-16 10 -52 42t-68 77t-49 100t1 115q0 6 -6 10t-15.5 6t-17.5 1t-8 -5q-16 -49 -20.5 -100t-2.5 -98.5t11.5 -83t21.5 -54.5q-23 -18 -54.5 -53t-63 -79 t-60.5 -93t-43 -98z" />
<glyph unicode="&#xbf;" horiz-adv-x="987" d="M-27 -375q0 -72 25 -134t68 -110.5t102 -76t129 -27.5q78 0 149.5 28.5t127 74t89 100.5t33.5 110q0 49 -32.5 90t-85.5 41q-55 0 -84 -29.5t-29 -70.5q0 -20 5 -35.5t12 -30t12.5 -32t5.5 -43.5q0 -78 -51.5 -119t-137.5 -41q-39 0 -61.5 9t-34.5 24.5t-15 37t-3 44.5 q0 37 15 115.5t36.5 162.5t44 157t37.5 99q35 68 62.5 93.5t86.5 25.5q43 0 74 -20.5t39 -51.5q2 -6 20.5 -3t16.5 12q2 0 7 18t5 20l115 363q2 2 -4.5 4t-16.5 2q-8 0 -16 -2t-8 -4l-111 -350q-10 23 -49 37t-80 14q-98 0 -188 -38t-159 -105.5t-110 -159.5t-41 -199z M698 629q0 -41 26 -67.5t62 -26.5q59 0 103.5 48t44.5 111q0 41 -25.5 67.5t-66.5 26.5q-29 0 -54.5 -13t-45 -34.5t-32 -51.5t-12.5 -60z" />
<glyph unicode="&#xc0;" horiz-adv-x="1286" d="M-293 0h414q2 0 4 6t5 14.5t4 14.5t-1 6h-145q-18 0 -15.5 15.5t43.5 70.5l275 358h471v-438q0 -6 -12 -6h-154q-2 0 -4 -6t-4 -14.5t-3 -14.5t1 -6h651q2 0 4 6t5 14.5t4 14.5t-1 6h-196q-12 0 -13 6v1434q0 2 -8 4t-18 2q-8 0 -17.5 -2t-11.5 -4l-1022 -1356 q-35 -49 -58.5 -66.5t-47.5 -17.5h-138q-4 0 -10 -20.5t-2 -20.5zM324 528l438 582v-582h-438zM692 1894q0 -31 14.5 -78t59.5 -98t129 -101t225 -83q2 0 4 6t5.5 13.5t4.5 15.5t-1 10q-74 16 -119 55t-74 86t-45 97.5t-29.5 92.5t-30 68.5t-47.5 26.5q-45 0 -70.5 -29.5 t-25.5 -81.5z" />
<glyph unicode="&#xc1;" horiz-adv-x="1286" d="M-293 0h414q2 0 4 6t5 14.5t4 14.5t-1 6h-145q-18 0 -15.5 15.5t43.5 70.5l275 358h471v-438q0 -6 -12 -6h-154q-2 0 -4 -6t-4 -14.5t-3 -14.5t1 -6h651q2 0 4 6t5 14.5t4 14.5t-1 6h-196q-12 0 -13 6v1434q0 2 -8 4t-18 2q-8 0 -17.5 -2t-11.5 -4l-1022 -1356 q-35 -49 -58.5 -66.5t-47.5 -17.5h-138q-4 0 -10 -20.5t-2 -20.5zM324 528l438 582v-582h-438zM954 1554q160 29 281 76t202 98.5t121.5 100.5t40.5 84q0 41 -23.5 62.5t-57.5 21.5q-45 0 -84 -51.5t-95.5 -119t-144.5 -134t-231 -97.5q-4 -2 -8.5 -21.5t-0.5 -19.5z" />
<glyph unicode="&#xc2;" horiz-adv-x="1286" d="M-293 0h414q2 0 4 6t5 14.5t4 14.5t-1 6h-145q-18 0 -15.5 15.5t43.5 70.5l275 358h471v-438q0 -6 -12 -6h-154q-2 0 -4 -6t-4 -14.5t-3 -14.5t1 -6h651q2 0 4 6t5 14.5t4 14.5t-1 6h-196q-12 0 -13 6v1434q0 2 -8 4t-18 2q-8 0 -17.5 -2t-11.5 -4l-1022 -1356 q-35 -49 -58.5 -66.5t-47.5 -17.5h-138q-4 0 -10 -20.5t-2 -20.5zM324 528l438 582v-582h-438zM803 1595q-2 -2 3 -6t12 -7t13.5 -5t8.5 0q74 63 132 117.5t115 109.5q18 -78 39 -132t48 -99l151 20q-16 39 -32.5 87.5t-30 99.5t-24.5 102t-15 96q0 4 -18.5 9.5t-22.5 3.5 q-35 -37 -77 -85t-89 -100.5t-100.5 -106.5t-112.5 -104z" />
<glyph unicode="&#xc3;" horiz-adv-x="1286" d="M-293 0h414q2 0 4 6t5 14.5t4 14.5t-1 6h-145q-18 0 -15.5 15.5t43.5 70.5l275 358h471v-438q0 -6 -12 -6h-154q-2 0 -4 -6t-4 -14.5t-3 -14.5t1 -6h651q2 0 4 6t5 14.5t4 14.5t-1 6h-196q-12 0 -13 6v1434q0 2 -8 4t-18 2q-8 0 -17.5 -2t-11.5 -4l-1022 -1356 q-35 -49 -58.5 -66.5t-47.5 -17.5h-138q-4 0 -10 -20.5t-2 -20.5zM324 528l438 582v-582h-438zM725 1602q0 -4 20 -5q20 0 21 5q0 49 30.5 85.5t100.5 36.5q35 0 74 -16t83 -35.5t92 -36t99 -16.5q59 0 106.5 19.5t81 53t51 79t17.5 94.5q0 4 -20 4t-21 -4q0 -51 -30.5 -88 t-100.5 -37q-35 0 -73.5 16.5t-82 37t-91.5 36.5t-99 16q-59 0 -106.5 -19.5t-81 -53t-52 -78.5t-18.5 -94z" />
<glyph unicode="&#xc4;" horiz-adv-x="1286" d="M-293 0h414q2 0 4 6t5 14.5t4 14.5t-1 6h-145q-18 0 -15.5 15.5t43.5 70.5l275 358h471v-438q0 -6 -12 -6h-154q-2 0 -4 -6t-4 -14.5t-3 -14.5t1 -6h651q2 0 4 6t5 14.5t4 14.5t-1 6h-196q-12 0 -13 6v1434q0 2 -8 4t-18 2q-8 0 -17.5 -2t-11.5 -4l-1022 -1356 q-35 -49 -58.5 -66.5t-47.5 -17.5h-138q-4 0 -10 -20.5t-2 -20.5zM324 528l438 582v-582h-438zM778 1706q0 -35 22.5 -58.5t57.5 -23.5q47 0 85 41t38 96q0 35 -21.5 56.5t-54.5 21.5q-49 0 -88 -39t-39 -94zM1171 1706q0 -35 23 -58.5t55 -23.5q49 0 86 41t37 96 q0 35 -21.5 56.5t-54.5 21.5q-49 0 -87 -39t-38 -94z" />
<glyph unicode="&#xc5;" horiz-adv-x="1341" d="M-293 0h414q2 0 4 6t5 14.5t4 14.5t-1 6h-145q-18 0 -15.5 15.5t43.5 70.5l275 358h471v-438q0 -6 -12 -6h-154q-2 0 -4 -6t-4 -14.5t-3 -14.5t1 -6h651q2 0 4 6t5 14.5t4 14.5t-1 6h-196q-12 0 -13 6v1399q70 12 118 69.5t48 133.5q0 61 -35.5 98t-97.5 37 q-43 0 -81 -16.5t-65.5 -45t-44 -66.5t-16.5 -81q0 -49 26 -84t69 -45l-998 -1321q-37 -47 -59.5 -65.5t-46.5 -18.5h-138q-4 0 -10 -20.5t-2 -20.5zM324 528l438 582v-582h-438zM911 1581q0 33 12.5 62.5t33 51t48 34t56.5 12.5q43 0 71.5 -24.5t28.5 -71.5q0 -33 -12 -63 t-32.5 -51.5t-48.5 -34.5t-56 -13q-43 0 -72 25.5t-29 72.5z" />
<glyph unicode="&#xc6;" horiz-adv-x="1822" d="M-277.5 6q-1.5 -6 1.5 -6h413q2 0 4 6t5.5 14.5t4.5 14.5t-1 6h-162q-16 0 -12 19.5t40 66.5l342 418h412l-158 -498q-4 -6 -16 -6h-184q-2 0 -4 -6t-5.5 -14.5t-4.5 -14.5t1 -6h1137q4 0 8 6l146 461q0 2 -7 2h-14h-16q-6 0 -6 -2q-25 -78 -76 -154.5t-130 -137 t-186.5 -97.5t-244.5 -37h-97q-14 0 -10 6l219 696h37q63 0 103.5 -24.5t58.5 -64.5t18 -91q0 -49 -16 -102q0 -4 20 -4t23 4l178 563q0 4 -22 4q-20 0 -21 -4q-35 -106 -119 -173t-211 -67h-36l194 619q0 6 14 6h123q98 0 160 -34t91.5 -88t30.5 -123.5t-22 -141.5 q0 -4 21 -4q20 0 22 4l119 422q0 6 -4 6h-1036q-2 0 -4 -6t-5 -14.5t-4 -14.5t1 -6h172l-1047 -1288q-20 -25 -34.5 -40t-28 -24.5t-28.5 -12.5t-38 -3h-98q-2 0 -4 -6t-4 -14.5t-3.5 -14.5zM389 586l639 782l-246 -782h-393z" />
<glyph unicode="&#xc7;" horiz-adv-x="1255" d="M100 510q0 -129 34 -230.5t96.5 -171t150.5 -106.5t194 -37q-20 -20 -37.5 -50t-17.5 -65t16.5 -61.5t37 -50t37 -44t16.5 -42.5q0 -84 -97 -84q-35 0 -55 19.5t-20 41.5q0 16 18.5 27.5t18.5 38.5q0 23 -12.5 35t-30.5 12q-29 0 -46.5 -25.5t-17.5 -54.5q0 -53 37 -94 t106 -41q76 0 124 49t48 115q0 39 -14 65.5t-32.5 50t-33 47t-14.5 58.5q0 23 9.5 36t19.5 19q147 16 278 102.5t236 235.5l-4 5t-10.5 11.5t-11.5 10.5t-5 2q-117 -168 -247 -248t-293 -80q-72 0 -119 18.5t-75 50t-39 76t-11 97.5q0 59 16.5 148t43 189.5t59 204 t65.5 195.5t62.5 164t48.5 108q53 94 121.5 140.5t183.5 46.5q82 0 139 -40t88 -103.5t36 -142.5t-19 -154q0 -2 5 -3.5t13 -1.5t15.5 1t7.5 4l149 477q0 2 -6 2h-14h-15q-6 0 -6 -2q-12 -25 -35.5 -45.5t-81.5 -20.5q-31 0 -58.5 11.5t-59 24.5t-70.5 24.5t-88 11.5 q-109 0 -213.5 -38t-196.5 -105.5t-170 -160.5t-134 -202t-88 -228.5t-32 -242.5z" />
<glyph unicode="&#xc8;" horiz-adv-x="1300" d="M-115 0h1137q4 0 8 6l146 461q0 2 -6.5 3t-14.5 1q-6 0 -13 -1t-7 -3q-25 -78 -76 -154.5t-130 -137t-187.5 -97.5t-245.5 -37h-97q-12 0 -10 8l221 696h37q63 0 102 -24.5t58.5 -64.5t19.5 -91t-16 -102q0 -2 6 -3t14 -1t15.5 1t7.5 3l176 561q0 2 -6 2h-14h-17 q-6 0 -6 -2q-35 -106 -119 -172t-211 -66h-36l194 617q4 8 16 8h121q98 0 160 -34t92.5 -88t31.5 -123.5t-22 -141.5q0 -2 5.5 -3t13.5 -1t15 1t7 3l119 422q0 6 -4 6h-1026q-2 0 -5 -6t-5 -14.5t-4 -14.5t0 -6h184q14 0 10 -8l-426 -1354q-2 -8 -14 -8h-184q-2 0 -5.5 -6 t-5.5 -14.5t-4 -14.5t0 -6zM741 1894q0 -31 14.5 -78t59.5 -98t129 -101t225 -83q2 0 4.5 6t5.5 13.5t4 15.5t-1 10q-74 16 -119 55t-73.5 86t-45 97.5t-30 92.5t-31 68.5t-45.5 26.5q-45 0 -71 -29.5t-26 -81.5z" />
<glyph unicode="&#xc9;" horiz-adv-x="1300" d="M-115 0h1137q4 0 8 6l146 461q0 2 -6.5 3t-14.5 1q-6 0 -13 -1t-7 -3q-25 -78 -76 -154.5t-130 -137t-187.5 -97.5t-245.5 -37h-97q-12 0 -10 8l221 696h37q63 0 102 -24.5t58.5 -64.5t19.5 -91t-16 -102q0 -2 6 -3t14 -1t15.5 1t7.5 3l176 561q0 2 -6 2h-14h-17 q-6 0 -6 -2q-35 -106 -119 -172t-211 -66h-36l194 617q4 8 16 8h121q98 0 160 -34t92.5 -88t31.5 -123.5t-22 -141.5q0 -2 5.5 -3t13.5 -1t15 1t7 3l119 422q0 6 -4 6h-1026q-2 0 -5 -6t-5 -14.5t-4 -14.5t0 -6h184q14 0 10 -8l-426 -1354q-2 -8 -14 -8h-184q-2 0 -5.5 -6 t-5.5 -14.5t-4 -14.5t0 -6zM782 1554q160 29 281 76t202 98.5t121.5 100.5t40.5 84q0 41 -23.5 62.5t-57.5 21.5q-45 0 -84 -51.5t-95.5 -119t-144.5 -134t-231 -97.5q-4 -2 -8.5 -21.5t-0.5 -19.5z" />
<glyph unicode="&#xca;" horiz-adv-x="1300" d="M-115 0h1137q4 0 8 6l146 461q0 2 -6.5 3t-14.5 1q-6 0 -13 -1t-7 -3q-25 -78 -76 -154.5t-130 -137t-187.5 -97.5t-245.5 -37h-97q-12 0 -10 8l221 696h37q63 0 102 -24.5t58.5 -64.5t19.5 -91t-16 -102q0 -2 6 -3t14 -1t15.5 1t7.5 3l176 561q0 2 -6 2h-14h-17 q-6 0 -6 -2q-35 -106 -119 -172t-211 -66h-36l194 617q4 8 16 8h121q98 0 160 -34t92.5 -88t31.5 -123.5t-22 -141.5q0 -2 5.5 -3t13.5 -1t15 1t7 3l119 422q0 6 -4 6h-1026q-2 0 -5 -6t-5 -14.5t-4 -14.5t0 -6h184q14 0 10 -8l-426 -1354q-2 -8 -14 -8h-184q-2 0 -5.5 -6 t-5.5 -14.5t-4 -14.5t0 -6zM748 1595q-2 -2 3 -6t12 -7t13 -5t8 0q74 63 132.5 117.5t115.5 109.5q18 -78 39 -132t47 -99l152 20q-16 39 -32.5 87.5t-30 99.5t-25 102t-15.5 96q0 4 -18.5 9.5t-22.5 3.5q-35 -37 -76.5 -85t-89 -100.5t-100.5 -106.5t-112 -104z" />
<glyph unicode="&#xcb;" horiz-adv-x="1300" d="M-115 0h1137q4 0 8 6l146 461q0 2 -6.5 3t-14.5 1q-6 0 -13 -1t-7 -3q-25 -78 -76 -154.5t-130 -137t-187.5 -97.5t-245.5 -37h-97q-12 0 -10 8l221 696h37q63 0 102 -24.5t58.5 -64.5t19.5 -91t-16 -102q0 -2 6 -3t14 -1t15.5 1t7.5 3l176 561q0 2 -6 2h-14h-17 q-6 0 -6 -2q-35 -106 -119 -172t-211 -66h-36l194 617q4 8 16 8h121q98 0 160 -34t92.5 -88t31.5 -123.5t-22 -141.5q0 -2 5.5 -3t13.5 -1t15 1t7 3l119 422q0 6 -4 6h-1026q-2 0 -5 -6t-5 -14.5t-4 -14.5t0 -6h184q14 0 10 -8l-426 -1354q-2 -8 -14 -8h-184q-2 0 -5.5 -6 t-5.5 -14.5t-4 -14.5t0 -6zM737 1706q0 -35 22.5 -58.5t57.5 -23.5q47 0 85 41t38 96q0 35 -21.5 56.5t-54.5 21.5q-49 0 -88 -39t-39 -94zM1130 1706q0 -35 23 -58.5t55 -23.5q49 0 86 41t37 96q0 35 -21.5 56.5t-54.5 21.5q-49 0 -87 -39t-38 -94z" />
<glyph unicode="&#xcc;" horiz-adv-x="800" d="M-113 0h686q2 0 4.5 6t5.5 14.5t4 14.5t-1 6h-185q-12 0 -10 8l426 1354q4 8 17 8h182q4 0 11 20.5t3 20.5h-684q-2 0 -5 -6t-5 -14.5t-4 -14.5t0 -6h184q14 0 10 -8l-426 -1354q-2 -8 -14 -8h-184q-2 0 -5 -6t-5.5 -14.5t-4.5 -14.5t0 -6zM477 1894q0 -31 14.5 -78 t59.5 -98t129 -101t225 -83q2 0 4 6t5.5 13.5t4.5 15.5t-1 10q-74 16 -119 55t-74 86t-45 97.5t-29.5 92.5t-31 68.5t-46.5 26.5q-45 0 -70.5 -29.5t-25.5 -81.5z" />
<glyph unicode="&#xcd;" horiz-adv-x="800" d="M-113 0h686q2 0 4.5 6t5.5 14.5t4 14.5t-1 6h-185q-12 0 -10 8l426 1354q4 8 17 8h182q4 0 11 20.5t3 20.5h-684q-2 0 -5 -6t-5 -14.5t-4 -14.5t0 -6h184q14 0 10 -8l-426 -1354q-2 -8 -14 -8h-184q-2 0 -5 -6t-5.5 -14.5t-4.5 -14.5t0 -6zM549 1554q160 29 280.5 76 t201.5 98.5t122 100.5t41 84q0 41 -23.5 62.5t-58.5 21.5q-45 0 -84 -51.5t-95 -119t-144.5 -134t-231.5 -97.5q-4 -2 -8 -21.5t0 -19.5z" />
<glyph unicode="&#xce;" horiz-adv-x="800" d="M-113 0h686q2 0 4.5 6t5.5 14.5t4 14.5t-1 6h-185q-12 0 -10 8l426 1354q4 8 17 8h182q4 0 11 20.5t3 20.5h-684q-2 0 -5 -6t-5 -14.5t-4 -14.5t0 -6h184q14 0 10 -8l-426 -1354q-2 -8 -14 -8h-184q-2 0 -5 -6t-5.5 -14.5t-4.5 -14.5t0 -6zM489 1595q-2 -2 3.5 -6 t12.5 -7t13 -5t8 0q74 63 132.5 117.5t115.5 109.5q18 -78 39 -132t47 -99l152 20q-16 39 -32.5 87.5t-30 99.5t-25 102t-15.5 96q0 4 -18.5 9.5t-22.5 3.5q-35 -37 -76.5 -85t-89 -100.5t-100.5 -106.5t-113 -104z" />
<glyph unicode="&#xcf;" horiz-adv-x="800" d="M-113 0h686q2 0 4.5 6t5.5 14.5t4 14.5t-1 6h-185q-12 0 -10 8l426 1354q4 8 17 8h182q4 0 11 20.5t3 20.5h-684q-2 0 -5 -6t-5 -14.5t-4 -14.5t0 -6h184q14 0 10 -8l-426 -1354q-2 -8 -14 -8h-184q-2 0 -5 -6t-5.5 -14.5t-4.5 -14.5t0 -6zM465 1706q0 -35 22.5 -58.5 t57.5 -23.5q47 0 85 41t38 96q0 35 -21.5 56.5t-54.5 21.5q-49 0 -88 -39t-39 -94zM858 1706q0 -35 22.5 -58.5t55.5 -23.5q49 0 86 41t37 96q0 35 -21.5 56.5t-54.5 21.5q-49 0 -87 -39t-38 -94z" />
<glyph unicode="&#xd1;" horiz-adv-x="1497" d="M-115 0h439q2 0 4 6t5 14.5t4 14.5t-1 6h-184q-12 0 -11 8l389 1231l431 -1307q2 -6 22.5 -5t22.5 5l450 1430q0 8 14 8h185q2 0 4 6t5 14.5t4 14.5t-1 6h-436q-2 0 -5 -6t-5 -14.5t-4.5 -14.5t0.5 -6h184q14 0 10 -8l-305 -967l-320 979q-10 37 -34 37h-373q-2 0 -5 -6 t-5 -14.5t-4.5 -14.5t0.5 -6h149q14 0 10 -8l-426 -1354q0 -8 -14 -8h-184q-2 0 -5.5 -6t-5.5 -14.5t-4 -14.5t0 -6zM713 1602q0 -4 20 -5q20 0 21 5q0 49 30.5 85.5t100.5 36.5q35 0 73.5 -16t82.5 -35.5t92.5 -36t99.5 -16.5q59 0 106 19.5t81 53t51.5 79t17.5 94.5 q0 4 -21 4q-20 0 -20 -4q0 -51 -31 -88t-100 -37q-35 0 -74 16.5t-82 37t-91 36.5t-99 16q-59 0 -106.5 -19.5t-81 -53t-52 -78.5t-18.5 -94z" />
<glyph unicode="&#xd2;" d="M100 510q0 -127 34 -228.5t95.5 -172t150.5 -107.5t200 -37q164 0 314 83t266 220.5t184.5 312.5t68.5 359q0 127 -33.5 228.5t-95 172t-151 108.5t-199.5 38q-109 0 -213.5 -38t-196.5 -105.5t-170 -160.5t-134 -202t-88 -228.5t-32 -242.5zM334 248q0 59 16.5 148 t43 189.5t59 204t65.5 195.5t62.5 164t48.5 108q53 96 121.5 141.5t183.5 45.5q72 0 120 -18.5t76.5 -50.5t40 -76t11.5 -95q0 -61 -16.5 -149t-43 -188.5t-59.5 -205t-66.5 -196.5t-63.5 -164t-48 -108q-53 -94 -122 -140.5t-183 -46.5q-72 0 -119 18.5t-76 50t-40 76 t-11 97.5zM692 1894q0 -31 14 -78t59.5 -98t129 -101.5t225.5 -82.5q2 0 4 6t5 13t4 15.5t-1 10.5q-74 16 -119 55t-73.5 86t-45 97.5t-30 92.5t-29.5 68.5t-47 26.5q-45 0 -70.5 -30t-25.5 -81z" />
<glyph unicode="&#xd3;" d="M100 510q0 -127 34 -228.5t95.5 -172t150.5 -107.5t200 -37q164 0 314 83t266 220.5t184.5 312.5t68.5 359q0 127 -33.5 228.5t-95 172t-151 108.5t-199.5 38q-109 0 -213.5 -38t-196.5 -105.5t-170 -160.5t-134 -202t-88 -228.5t-32 -242.5zM334 248q0 59 16.5 148 t43 189.5t59 204t65.5 195.5t62.5 164t48.5 108q53 96 121.5 141.5t183.5 45.5q72 0 120 -18.5t76.5 -50.5t40 -76t11.5 -95q0 -61 -16.5 -149t-43 -188.5t-59.5 -205t-66.5 -196.5t-63.5 -164t-48 -108q-53 -94 -122 -140.5t-183 -46.5q-72 0 -119 18.5t-76 50t-40 76 t-11 97.5zM850 1554q160 29 280.5 76t201.5 98t122 100.5t41 84.5q0 41 -23.5 62.5t-58.5 21.5q-45 0 -84 -51.5t-95.5 -119t-144.5 -134t-231 -97.5q-4 -2 -8 -21.5t0 -19.5z" />
<glyph unicode="&#xd4;" d="M100 510q0 -127 34 -228.5t95.5 -172t150.5 -107.5t200 -37q164 0 314 83t266 220.5t184.5 312.5t68.5 359q0 127 -33.5 228.5t-95 172t-151 108.5t-199.5 38q-109 0 -213.5 -38t-196.5 -105.5t-170 -160.5t-134 -202t-88 -228.5t-32 -242.5zM334 248q0 59 16.5 148 t43 189.5t59 204t65.5 195.5t62.5 164t48.5 108q53 96 121.5 141.5t183.5 45.5q72 0 120 -18.5t76.5 -50.5t40 -76t11.5 -95q0 -61 -16.5 -149t-43 -188.5t-59.5 -205t-66.5 -196.5t-63.5 -164t-48 -108q-53 -94 -122 -140.5t-183 -46.5q-72 0 -119 18.5t-76 50t-40 76 t-11 97.5zM790 1595q-2 -2 3 -6t12.5 -7t13.5 -5t8 0q74 63 132.5 117.5t115.5 109.5q18 -78 38.5 -132t47.5 -99l152 20q-16 39 -33 87t-30 99.5t-24.5 102.5t-15.5 96q0 4 -18.5 9t-22.5 3q-35 -37 -77 -85t-89 -100t-100 -106.5t-113 -103.5z" />
<glyph unicode="&#xd5;" d="M100 510q0 -127 34 -228.5t95.5 -172t150.5 -107.5t200 -37q164 0 314 83t266 220.5t184.5 312.5t68.5 359q0 127 -33.5 228.5t-95 172t-151 108.5t-199.5 38q-109 0 -213.5 -38t-196.5 -105.5t-170 -160.5t-134 -202t-88 -228.5t-32 -242.5zM334 248q0 59 16.5 148 t43 189.5t59 204t65.5 195.5t62.5 164t48.5 108q53 96 121.5 141.5t183.5 45.5q72 0 120 -18.5t76.5 -50.5t40 -76t11.5 -95q0 -61 -16.5 -149t-43 -188.5t-59.5 -205t-66.5 -196.5t-63.5 -164t-48 -108q-53 -94 -122 -140.5t-183 -46.5q-72 0 -119 18.5t-76 50t-40 76 t-11 97.5zM676 1601q0 -4 20 -4t21 4q0 49 30.5 86t100.5 37q35 0 73.5 -16.5t82.5 -36t92.5 -35.5t99.5 -16q59 0 106 19.5t81 53t51.5 78.5t17.5 94q0 4 -21 5q-20 0 -20 -5q0 -51 -31 -87.5t-100 -36.5q-35 0 -74 16t-82 36.5t-91 37t-99 16.5q-59 0 -106.5 -19.5 t-81.5 -53t-52 -79t-18 -94.5z" />
<glyph unicode="&#xd6;" d="M100 510q0 -127 34 -228.5t95.5 -172t150.5 -107.5t200 -37q164 0 314 83t266 220.5t184.5 312.5t68.5 359q0 127 -33.5 228.5t-95 172t-151 108.5t-199.5 38q-109 0 -213.5 -38t-196.5 -105.5t-170 -160.5t-134 -202t-88 -228.5t-32 -242.5zM334 248q0 59 16.5 148 t43 189.5t59 204t65.5 195.5t62.5 164t48.5 108q53 96 121.5 141.5t183.5 45.5q72 0 120 -18.5t76.5 -50.5t40 -76t11.5 -95q0 -61 -16.5 -149t-43 -188.5t-59.5 -205t-66.5 -196.5t-63.5 -164t-48 -108q-53 -94 -122 -140.5t-183 -46.5q-72 0 -119 18.5t-76 50t-40 76 t-11 97.5zM771 1706q0 -35 22.5 -58.5t56.5 -23.5q47 0 85 41t38 96q0 35 -21.5 56.5t-53.5 21.5q-49 0 -88 -39t-39 -94zM1164 1706q0 -35 22.5 -58.5t55.5 -23.5q49 0 85.5 41t36.5 96q0 35 -21.5 56.5t-53.5 21.5q-49 0 -87 -39t-38 -94z" />
<glyph unicode="&#xd8;" d="M100 510q0 -133 36 -235.5t102 -174.5l-107 -135q-2 -2 2 -6t10.5 -7t12.5 -6t6 -1q2 2 16.5 19.5t39 49t48.5 60.5q59 -53 138 -81t176 -28q164 0 314 83t266 220.5t184.5 312.5t68.5 359q0 268 -139 414l106 133q2 2 -13 14t-19 8l-103 -129q-59 51 -137 79t-174 28 q-109 0 -213.5 -38t-196.5 -105.5t-170 -160.5t-134 -202t-88 -228.5t-32 -242.5zM334 221v27q0 59 16.5 148t43 189.5t59 204t65.5 195.5t62.5 164t48.5 108q53 96 121.5 141.5t183.5 45.5t169.5 -44t70.5 -114zM340 170l47 60q47 59 121 152t164 208t179 226.5t165 207.5 t120 151.5t46 59.5v-31q0 -61 -16.5 -149t-43 -188.5t-59.5 -205t-66.5 -196.5t-63.5 -164t-48 -108q-53 -94 -122 -140.5t-183 -46.5q-115 0 -169.5 46t-70.5 118z" />
<glyph unicode="&#xd9;" horiz-adv-x="1507" d="M201 336q0 -78 22.5 -145.5t70.5 -117.5t125 -79t185 -29q229 0 370.5 117t207.5 328l315 993q0 8 14 8h168q4 0 9.5 20.5t1.5 20.5h-404q-4 0 -9 -20.5t-1 -20.5h166q14 0 10 -8l-305 -961q-66 -211 -176.5 -310t-292.5 -99q-213 0 -213 211q0 104 49 256l283 903 q4 8 14 8h184q2 0 5.5 6t5.5 14.5t4 14.5t0 6h-686q-2 0 -4.5 -6t-5.5 -14.5t-4 -14.5t1 -6h185q14 0 10 -8l-273 -864q-16 -53 -24 -103.5t-8 -99.5zM840 1894q0 -31 14 -78t59.5 -98t129 -101.5t225.5 -82.5q2 0 4 6t5 13t4 15.5t-1 10.5q-74 16 -119 55t-73.5 86 t-45 97.5t-30 92.5t-29.5 68.5t-47 26.5q-45 0 -70.5 -30t-25.5 -81z" />
<glyph unicode="&#xda;" horiz-adv-x="1507" d="M201 336q0 -78 22.5 -145.5t70.5 -117.5t125 -79t185 -29q229 0 370.5 117t207.5 328l315 993q0 8 14 8h168q4 0 9.5 20.5t1.5 20.5h-404q-4 0 -9 -20.5t-1 -20.5h166q14 0 10 -8l-305 -961q-66 -211 -176.5 -310t-292.5 -99q-213 0 -213 211q0 104 49 256l283 903 q4 8 14 8h184q2 0 5.5 6t5.5 14.5t4 14.5t0 6h-686q-2 0 -4.5 -6t-5.5 -14.5t-4 -14.5t1 -6h185q14 0 10 -8l-273 -864q-16 -53 -24 -103.5t-8 -99.5zM967 1554q160 29 280.5 76t201.5 98t122 100.5t41 84.5q0 41 -23.5 62.5t-58.5 21.5q-45 0 -84 -51.5t-95.5 -119 t-144.5 -134t-231 -97.5q-4 -2 -8 -21.5t0 -19.5z" />
<glyph unicode="&#xdb;" horiz-adv-x="1507" d="M201 336q0 -78 22.5 -145.5t70.5 -117.5t125 -79t185 -29q229 0 370.5 117t207.5 328l315 993q0 8 14 8h168q4 0 9.5 20.5t1.5 20.5h-404q-4 0 -9 -20.5t-1 -20.5h166q14 0 10 -8l-305 -961q-66 -211 -176.5 -310t-292.5 -99q-213 0 -213 211q0 104 49 256l283 903 q4 8 14 8h184q2 0 5.5 6t5.5 14.5t4 14.5t0 6h-686q-2 0 -4.5 -6t-5.5 -14.5t-4 -14.5t1 -6h185q14 0 10 -8l-273 -864q-16 -53 -24 -103.5t-8 -99.5zM919 1595q-2 -2 3 -6t12.5 -7t13.5 -5t8 0q74 63 132.5 117.5t115.5 109.5q18 -78 38.5 -132t47.5 -99l152 20 q-16 39 -33 87t-30 99.5t-24.5 102.5t-15.5 96q0 4 -18.5 9t-22.5 3q-35 -37 -77 -85t-89 -100t-100 -106.5t-113 -103.5z" />
<glyph unicode="&#xdc;" horiz-adv-x="1507" d="M201 336q0 -78 22.5 -145.5t70.5 -117.5t125 -79t185 -29q229 0 370.5 117t207.5 328l315 993q0 8 14 8h168q4 0 9.5 20.5t1.5 20.5h-404q-4 0 -9 -20.5t-1 -20.5h166q14 0 10 -8l-305 -961q-66 -211 -176.5 -310t-292.5 -99q-213 0 -213 211q0 104 49 256l283 903 q4 8 14 8h184q2 0 5.5 6t5.5 14.5t4 14.5t0 6h-686q-2 0 -4.5 -6t-5.5 -14.5t-4 -14.5t1 -6h185q14 0 10 -8l-273 -864q-16 -53 -24 -103.5t-8 -99.5zM900 1706q0 -35 22.5 -58.5t56.5 -23.5q47 0 85 41t38 96q0 35 -21.5 56.5t-53.5 21.5q-49 0 -88 -39t-39 -94zM1293 1706 q0 -35 22.5 -58.5t55.5 -23.5q49 0 85.5 41t36.5 96q0 35 -21.5 56.5t-53.5 21.5q-49 0 -87 -39t-38 -94z" />
<glyph unicode="&#xdf;" horiz-adv-x="1138" d="M-504 -440q0 -41 20.5 -78t54.5 -64.5t76 -44t87 -16.5q90 0 163.5 39t134 109.5t108.5 168t89 213.5q20 55 47 147.5t58 203t62.5 229.5t61 228.5t55.5 200.5t42 144q43 139 81 225.5t72.5 133.5t68.5 63.5t69 16.5q53 0 74.5 -32t21.5 -97q0 -66 -23.5 -145 t-66.5 -153.5t-102.5 -135t-128.5 -87.5q-2 0 -1 -6t3 -13t5 -12t7 -3q45 23 78 22q57 0 92 -30.5t35 -108.5q0 -49 -13.5 -125t-33 -156t-43 -149.5t-43.5 -106.5q-39 -66 -67 -91t-56 -25q-51 0 -52 57q0 20 16.5 41.5t16.5 50.5q0 25 -15 46.5t-54 21.5q-35 0 -62.5 -30 t-27.5 -81q0 -63 47 -105t118 -42q80 0 162 44t148.5 117.5t107.5 171t41 205.5q0 150 -69.5 238t-180.5 88q-18 0 -25 1t-18 -1q80 29 150.5 72t123 100t83 125.5t30.5 148.5q0 104 -63.5 165t-186.5 61q-90 0 -175 -37t-156.5 -103.5t-130 -162t-97.5 -211.5 q-18 -53 -42.5 -145.5t-53.5 -204t-59.5 -234.5t-60 -238.5t-57.5 -214t-48 -162.5q-41 -123 -69.5 -201.5t-56.5 -124.5t-56.5 -64.5t-67.5 -18.5q-33 0 -59.5 19.5t-26.5 54.5q0 14 7 28.5t16.5 30.5t16.5 34.5t7 37.5q0 37 -24.5 59.5t-75.5 22.5q-45 0 -77 -33t-32 -92z " />
<glyph unicode="&#xe0;" horiz-adv-x="1044" d="M55 311q0 -61 13.5 -119.5t45 -105.5t83 -75.5t127.5 -28.5q92 0 157.5 50t116.5 148q-10 -43 -3 -80t28.5 -62.5t56.5 -40.5t80 -15q39 0 80 15t79.5 43t72.5 66.5t57 83.5l-41 15q-33 -59 -77 -99t-95 -40q-29 0 -38.5 18t-2.5 41l243 772l-223 -29l-43 -84 q-10 51 -55 78t-99 27q-119 0 -221 -54.5t-178 -138.5t-120 -186t-44 -199zM272 168q0 63 16.5 155.5t48.5 185.5t77 175t100 125q37 27 60.5 35t43.5 8q59 0 94.5 -37t39.5 -96l-107 -334q-74 -186 -140.5 -269t-137.5 -83q-41 0 -68 27.5t-27 107.5zM434 1372 q0 -31 14.5 -78t59.5 -98t129 -101.5t225 -82.5q2 0 4 6t5 13t4 15.5t-1 10.5q-74 16 -118.5 55t-73.5 86t-45 97.5t-29.5 92.5t-30 68.5t-47.5 26.5q-45 0 -70.5 -30t-25.5 -81z" />
<glyph unicode="&#xe1;" horiz-adv-x="1044" d="M55 311q0 -61 13.5 -119.5t45 -105.5t83 -75.5t127.5 -28.5q92 0 157.5 50t116.5 148q-10 -43 -3 -80t28.5 -62.5t56.5 -40.5t80 -15q39 0 80 15t79.5 43t72.5 66.5t57 83.5l-41 15q-33 -59 -77 -99t-95 -40q-29 0 -38.5 18t-2.5 41l243 772l-223 -29l-43 -84 q-10 51 -55 78t-99 27q-119 0 -221 -54.5t-178 -138.5t-120 -186t-44 -199zM272 168q0 63 16.5 155.5t48.5 185.5t77 175t100 125q37 27 60.5 35t43.5 8q59 0 94.5 -37t39.5 -96l-107 -334q-74 -186 -140.5 -269t-137.5 -83q-41 0 -68 27.5t-27 107.5zM530 1032 q160 29 281 76t202 98t122 100.5t41 84.5q0 41 -24 62.5t-58 21.5q-45 0 -84 -51.5t-95.5 -119t-144.5 -134t-231 -97.5q-4 -2 -8.5 -21.5t-0.5 -19.5z" />
<glyph unicode="&#xe2;" horiz-adv-x="1044" d="M55 311q0 -61 13.5 -119.5t45 -105.5t83 -75.5t127.5 -28.5q92 0 157.5 50t116.5 148q-10 -43 -3 -80t28.5 -62.5t56.5 -40.5t80 -15q39 0 80 15t79.5 43t72.5 66.5t57 83.5l-41 15q-33 -59 -77 -99t-95 -40q-29 0 -38.5 18t-2.5 41l243 772l-223 -29l-43 -84 q-10 51 -55 78t-99 27q-119 0 -221 -54.5t-178 -138.5t-120 -186t-44 -199zM272 168q0 63 16.5 155.5t48.5 185.5t77 175t100 125q37 27 60.5 35t43.5 8q59 0 94.5 -37t39.5 -96l-107 -334q-74 -186 -140.5 -269t-137.5 -83q-41 0 -68 27.5t-27 107.5zM489 1073 q-2 -2 3.5 -6t12.5 -7t13 -5t8 0q74 63 132.5 117.5t115.5 109.5q18 -78 39 -132t47 -99l152 20q-16 39 -32.5 87t-30 99.5t-25 102.5t-15.5 96q0 4 -18.5 9t-22.5 3q-35 -37 -76.5 -85t-89 -100t-100.5 -106.5t-113 -103.5z" />
<glyph unicode="&#xe3;" horiz-adv-x="1044" d="M55 311q0 -61 13.5 -119.5t45 -105.5t83 -75.5t127.5 -28.5q92 0 157.5 50t116.5 148q-10 -43 -3 -80t28.5 -62.5t56.5 -40.5t80 -15q39 0 80 15t79.5 43t72.5 66.5t57 83.5l-41 15q-33 -59 -77 -99t-95 -40q-29 0 -38.5 18t-2.5 41l243 772l-223 -29l-43 -84 q-10 51 -55 78t-99 27q-119 0 -221 -54.5t-178 -138.5t-120 -186t-44 -199zM272 168q0 63 16.5 155.5t48.5 185.5t77 175t100 125q37 27 60.5 35t43.5 8q59 0 94.5 -37t39.5 -96l-107 -334q-74 -186 -140.5 -269t-137.5 -83q-41 0 -68 27.5t-27 107.5zM350 1079q0 -4 21 -4 q20 0 20 4q0 49 31 86t100 37q35 0 74 -16.5t83 -36t92 -35.5t99 -16q59 0 106.5 19.5t81.5 53t51 78.5t17 94q0 4 -20 5q-20 0 -21 -5q0 -51 -30.5 -87.5t-100.5 -36.5q-35 0 -73.5 16t-81.5 36.5t-91.5 37t-99.5 16.5q-59 0 -106 -19.5t-81 -53t-52.5 -79t-18.5 -94.5z " />
<glyph unicode="&#xe4;" horiz-adv-x="1044" d="M55 311q0 -61 13.5 -119.5t45 -105.5t83 -75.5t127.5 -28.5q92 0 157.5 50t116.5 148q-10 -43 -3 -80t28.5 -62.5t56.5 -40.5t80 -15q39 0 80 15t79.5 43t72.5 66.5t57 83.5l-41 15q-33 -59 -77 -99t-95 -40q-29 0 -38.5 18t-2.5 41l243 772l-223 -29l-43 -84 q-10 51 -55 78t-99 27q-119 0 -221 -54.5t-178 -138.5t-120 -186t-44 -199zM272 168q0 63 16.5 155.5t48.5 185.5t77 175t100 125q37 27 60.5 35t43.5 8q59 0 94.5 -37t39.5 -96l-107 -334q-74 -186 -140.5 -269t-137.5 -83q-41 0 -68 27.5t-27 107.5zM451 1184 q0 -35 22.5 -58.5t56.5 -23.5q47 0 85 41t38 96q0 35 -21.5 56.5t-53.5 21.5q-49 0 -88 -39t-39 -94zM844 1184q0 -35 22.5 -58.5t55.5 -23.5q49 0 85.5 41t36.5 96q0 35 -21.5 56.5t-53.5 21.5q-49 0 -87 -39t-38 -94z" />
<glyph unicode="&#xe5;" horiz-adv-x="1044" d="M55 311q0 -61 13.5 -119.5t45 -105.5t83 -75.5t127.5 -28.5q92 0 157.5 50t116.5 148q-10 -43 -3 -80t28.5 -62.5t56.5 -40.5t80 -15q39 0 80 15t79.5 43t72.5 66.5t57 83.5l-41 15q-33 -59 -77 -99t-95 -40q-29 0 -38.5 18t-2.5 41l243 772l-223 -29l-43 -84 q-10 51 -55 78t-99 27q-119 0 -221 -54.5t-178 -138.5t-120 -186t-44 -199zM272 168q0 63 16.5 155.5t48.5 185.5t77 175t100 125q37 27 60.5 35t43.5 8q59 0 94.5 -37t39.5 -96l-107 -334q-74 -186 -140.5 -269t-137.5 -83q-41 0 -68 27.5t-27 107.5zM563 1208 q0 -59 36 -96t97 -37q43 0 81 16.5t65.5 45t44 66.5t16.5 81q0 61 -36 98t-97 37q-43 0 -81 -16.5t-65.5 -45t-44 -67.5t-16.5 -82zM608 1217q0 66 45 112.5t105 46.5q43 0 71.5 -24.5t28.5 -71.5q0 -33 -12 -62.5t-32.5 -51t-48.5 -35t-56 -13.5q-43 0 -72 24.5t-29 74.5z " />
<glyph unicode="&#xe6;" horiz-adv-x="1357" d="M2 178q0 -92 67.5 -144t184.5 -52q121 0 207 42t145 107q35 -72 97.5 -110.5t150.5 -38.5q109 0 189.5 45t152.5 131l-22 28q-66 -72 -136.5 -119t-177.5 -47q-70 0 -94.5 40t-24.5 116q0 53 11.5 116.5t33.5 127.5h39q104 0 194.5 20.5t157 57.5t103.5 87t37 109 q0 80 -67.5 138.5t-196.5 58.5q-96 0 -179 -42t-149 -114q-37 72 -110.5 112t-161.5 40q-47 0 -93.5 -17.5t-82 -46t-58 -64.5t-22.5 -73q0 -49 31.5 -75.5t72.5 -26.5q47 0 68.5 28.5t21.5 61.5q0 18 -6 31.5t-12 23.5t-12.5 21.5t-6.5 25.5q0 29 28 49.5t67 20.5 q84 0 123.5 -41t39.5 -117q0 -23 -1 -42t-6 -43.5t-13 -58.5t-23 -83h-106q-117 0 -204 -23.5t-144.5 -63.5t-85 -91.5t-27.5 -104.5zM190 115q0 41 15.5 94t50.5 100t94.5 79t149.5 32h59q-27 -98 -52.5 -172t-56 -124t-70.5 -75.5t-93 -25.5q-96 0 -97 92zM795 461 q23 80 45 149.5t51 121.5t65.5 83t87.5 31q41 0 60.5 -23t19.5 -82q0 -53 -10 -103t-42 -89t-90 -63.5t-155 -24.5h-32z" />
<glyph unicode="&#xe7;" horiz-adv-x="874" d="M55 324q0 -72 21.5 -130.5t59.5 -103.5t90.5 -71.5t113.5 -32.5q-18 -20 -35.5 -49t-17.5 -64t16 -61.5t36.5 -49t37 -43t16.5 -43.5q0 -86 -96 -86q-35 0 -55.5 19.5t-20.5 44.5q0 8 6 14l12.5 12.5t12.5 15.5t6 21q0 23 -12.5 36.5t-30.5 13.5q-29 0 -46 -27t-17 -55 q0 -53 36.5 -94.5t106.5 -41.5q76 0 125 49.5t49 114.5q0 39 -14.5 65.5t-33 50.5t-32.5 47.5t-14 57.5q0 33 18 48q102 4 192.5 61t155.5 147l-34 21q-61 -82 -139.5 -136.5t-188.5 -54.5q-68 0 -94.5 36t-26.5 114q0 49 16.5 131t40 168t50 162t47.5 112q33 53 64.5 78 t82.5 25q53 0 84 -16.5t31 -51.5q0 -20 -5 -32.5t-12.5 -25.5t-12.5 -29.5t-5 -45.5q0 -33 22.5 -62.5t71.5 -29.5q47 0 79 25.5t32 78.5q0 39 -23.5 81t-62.5 76t-90.5 55.5t-106.5 21.5q-104 0 -196.5 -47t-161 -126t-108.5 -181.5t-40 -212.5z" />
<glyph unicode="&#xe8;" horiz-adv-x="868" d="M55 322q0 -76 23.5 -138.5t65.5 -107.5t100.5 -69.5t128.5 -24.5q106 0 189 45t155 131l-25 28q-66 -72 -136.5 -119t-176.5 -47q-70 0 -94.5 40t-24.5 116q0 53 12.5 121t34.5 131h39q104 0 194.5 18.5t156 53.5t102.5 84t37 110q0 80 -67 138.5t-196 58.5 q-102 0 -196 -47t-166 -127t-114 -182.5t-42 -212.5zM274 1372q0 -31 14.5 -78t59.5 -98t129 -101.5t225 -82.5q2 0 4.5 6t5.5 13t4 15.5t-1 10.5q-74 16 -119 55t-73.5 86t-45 97.5t-30 92.5t-30 68.5t-46.5 26.5q-45 0 -71 -30t-26 -81zM315 469q23 80 45.5 148.5 t50 118.5t64.5 80t88 30q41 0 60.5 -23t19.5 -82q0 -53 -10 -101t-41 -87t-89.5 -61.5t-154.5 -22.5h-33z" />
<glyph unicode="&#xe9;" horiz-adv-x="868" d="M55 322q0 -76 23.5 -138.5t65.5 -107.5t100.5 -69.5t128.5 -24.5q106 0 189 45t155 131l-25 28q-66 -72 -136.5 -119t-176.5 -47q-70 0 -94.5 40t-24.5 116q0 53 12.5 121t34.5 131h39q104 0 194.5 18.5t156 53.5t102.5 84t37 110q0 80 -67 138.5t-196 58.5 q-102 0 -196 -47t-166 -127t-114 -182.5t-42 -212.5zM315 469q23 80 45.5 148.5t50 118.5t64.5 80t88 30q41 0 60.5 -23t19.5 -82q0 -53 -10 -101t-41 -87t-89.5 -61.5t-154.5 -22.5h-33zM438 1032q160 29 281 76t201.5 98t121.5 100.5t41 84.5q0 41 -23.5 62.5t-58.5 21.5 q-45 0 -83.5 -51.5t-95 -119t-144.5 -134t-232 -97.5q-4 -2 -8 -21.5t0 -19.5z" />
<glyph unicode="&#xea;" horiz-adv-x="868" d="M55 322q0 -76 23.5 -138.5t65.5 -107.5t100.5 -69.5t128.5 -24.5q106 0 189 45t155 131l-25 28q-66 -72 -136.5 -119t-176.5 -47q-70 0 -94.5 40t-24.5 116q0 53 12.5 121t34.5 131h39q104 0 194.5 18.5t156 53.5t102.5 84t37 110q0 80 -67 138.5t-196 58.5 q-102 0 -196 -47t-166 -127t-114 -182.5t-42 -212.5zM315 469q23 80 45.5 148.5t50 118.5t64.5 80t88 30q41 0 60.5 -23t19.5 -82q0 -53 -10 -101t-41 -87t-89.5 -61.5t-154.5 -22.5h-33zM391 1073q-2 -2 3 -6t12.5 -7t13.5 -5t8 0q74 63 132 117.5t116 109.5 q18 -78 38.5 -132t47.5 -99l151 20q-16 39 -32.5 87t-29.5 99.5t-24.5 102.5t-15.5 96q0 4 -18.5 9t-22.5 3q-35 -37 -77 -85t-89 -100t-100 -106.5t-113 -103.5z" />
<glyph unicode="&#xeb;" horiz-adv-x="868" d="M55 322q0 -76 23.5 -138.5t65.5 -107.5t100.5 -69.5t128.5 -24.5q106 0 189 45t155 131l-25 28q-66 -72 -136.5 -119t-176.5 -47q-70 0 -94.5 40t-24.5 116q0 53 12.5 121t34.5 131h39q104 0 194.5 18.5t156 53.5t102.5 84t37 110q0 80 -67 138.5t-196 58.5 q-102 0 -196 -47t-166 -127t-114 -182.5t-42 -212.5zM315 469q23 80 45.5 148.5t50 118.5t64.5 80t88 30q41 0 60.5 -23t19.5 -82q0 -53 -10 -101t-41 -87t-89.5 -61.5t-154.5 -22.5h-33zM322 1184q0 -35 22.5 -58.5t56.5 -23.5q47 0 85 41t38 96q0 35 -21.5 56.5 t-53.5 21.5q-49 0 -88 -39t-39 -94zM715 1184q0 -35 22.5 -58.5t55.5 -23.5q49 0 85.5 41t36.5 96q0 35 -21.5 56.5t-53.5 21.5q-49 0 -87 -39t-38 -94z" />
<glyph unicode="&#xec;" horiz-adv-x="557" d="M68 707l41 -15q25 51 61.5 84t60.5 33q27 0 41.5 -14.5t14.5 -55.5q0 -59 -30 -133t-66.5 -151.5t-66.5 -156.5t-30 -148q0 -72 44 -120t130 -48q92 0 175 57t128 149l-36 15q-43 -78 -84 -109t-89 -31q-35 0 -48 23t-13 57q0 49 30.5 119t68.5 147.5t69 160.5t31 161 q0 63 -42 111.5t-120 48.5q-90 0 -161 -50t-109 -134zM96 1372q0 -31 14.5 -78t59.5 -98t129 -101.5t225 -82.5q2 0 4 6t5.5 13t4.5 15.5t-1 10.5q-74 16 -119 55t-74 86t-45 97.5t-29.5 92.5t-30 68.5t-46.5 26.5q-45 0 -71 -30t-26 -81z" />
<glyph unicode="&#xed;" horiz-adv-x="557" d="M68 707l41 -15q25 51 61.5 84t60.5 33q27 0 41.5 -14.5t14.5 -55.5q0 -59 -30 -133t-66.5 -151.5t-66.5 -156.5t-30 -148q0 -72 44 -120t130 -48q92 0 175 57t128 149l-36 15q-43 -78 -84 -109t-89 -31q-35 0 -48 23t-13 57q0 49 30.5 119t68.5 147.5t69 160.5t31 161 q0 63 -42 111.5t-120 48.5q-90 0 -161 -50t-109 -134zM254 1032q160 29 280.5 76t201.5 98t122 100.5t41 84.5q0 41 -23.5 62.5t-58.5 21.5q-45 0 -84 -51.5t-95 -119t-144 -134t-232 -97.5q-4 -2 -8 -21.5t0 -19.5z" />
<glyph unicode="&#xee;" horiz-adv-x="557" d="M68 707l41 -15q25 51 61.5 84t60.5 33q27 0 41.5 -14.5t14.5 -55.5q0 -59 -30 -133t-66.5 -151.5t-66.5 -156.5t-30 -148q0 -72 44 -120t130 -48q92 0 175 57t128 149l-36 15q-43 -78 -84 -109t-89 -31q-35 0 -48 23t-13 57q0 49 30.5 119t68.5 147.5t69 160.5t31 161 q0 63 -42 111.5t-120 48.5q-90 0 -161 -50t-109 -134zM201 1073q-2 -2 3 -6t12 -7t13.5 -5t8.5 0q74 63 132 117.5t115 109.5q18 -78 39 -132t47 -99l152 20q-16 39 -32.5 87t-30 99.5t-24.5 102.5t-15 96q0 4 -18.5 9t-22.5 3q-35 -37 -77 -85t-89 -100t-100.5 -106.5 t-112.5 -103.5z" />
<glyph unicode="&#xef;" horiz-adv-x="557" d="M68 707l41 -15q25 51 61.5 84t60.5 33q27 0 41.5 -14.5t14.5 -55.5q0 -59 -30 -133t-66.5 -151.5t-66.5 -156.5t-30 -148q0 -72 44 -120t130 -48q92 0 175 57t128 149l-36 15q-43 -78 -84 -109t-89 -31q-35 0 -48 23t-13 57q0 49 30.5 119t68.5 147.5t69 160.5t31 161 q0 63 -42 111.5t-120 48.5q-90 0 -161 -50t-109 -134zM125 1184q0 -35 22.5 -58.5t57.5 -23.5q47 0 85 41t38 96q0 35 -21.5 56.5t-54.5 21.5q-49 0 -88 -39t-39 -94zM518 1184q0 -35 22.5 -58.5t55.5 -23.5q49 0 86 41t37 96q0 35 -21.5 56.5t-54.5 21.5q-49 0 -87 -39 t-38 -94z" />
<glyph unicode="&#xf1;" horiz-adv-x="1091" d="M51 0h230l135 432q51 92 92 156.5t78 104.5t69.5 58.5t69.5 18.5t52.5 -24.5t15.5 -61.5q0 -68 -26 -138.5t-55.5 -140t-55 -137t-25.5 -129.5q0 -63 45 -110t129 -47t167 51t134 155l-37 15q-45 -74 -85 -107t-87 -33q-35 0 -49 23t-14 57q0 43 27.5 106.5t61 139.5 t62.5 157t29 161q0 88 -45 136t-127 48q-41 0 -86 -14.5t-93.5 -48t-98.5 -93t-101 -147.5q25 76 23.5 133t-22 95t-55 56.5t-79.5 18.5q-82 0 -150.5 -50t-105.5 -134l39 -15q31 66 60.5 91.5t59.5 25.5q31 0 44.5 -26.5t-1.5 -69.5zM307 1079q0 -4 21 -4q20 0 20 4 q0 49 31 86t100 37q35 0 74 -16.5t83 -36t92 -35.5t99 -16q59 0 106.5 19.5t81.5 53t51 78.5t17 94q0 4 -20 5q-20 0 -21 -5q0 -51 -30.5 -87.5t-100.5 -36.5q-35 0 -73.5 16t-81.5 36.5t-91.5 37t-99.5 16.5q-59 0 -106 -19.5t-81 -53t-52.5 -79t-18.5 -94.5z" />
<glyph unicode="&#xf2;" horiz-adv-x="995" d="M55 324q0 -76 23.5 -139.5t66.5 -108.5t101.5 -69.5t128.5 -24.5q102 0 196.5 47t166 125.5t114.5 179t43 209.5q0 76 -23.5 140.5t-66.5 110.5t-101.5 71.5t-128.5 25.5q-102 0 -196 -47t-166 -126t-115 -181.5t-43 -212.5zM262 176q0 41 14.5 121t36 165t45 158.5 t39.5 102.5q37 66 80 94.5t96 28.5q66 0 91.5 -40t25.5 -114q0 -41 -15.5 -119.5t-37 -163.5t-45 -159t-39.5 -105q-39 -66 -82 -95.5t-94 -29.5q-70 0 -92.5 40t-22.5 116zM311 1372q0 -31 14.5 -78t59.5 -98t129 -101.5t225 -82.5q2 0 4 6t5.5 13t4.5 15.5t-1 10.5 q-74 16 -119 55t-74 86t-45 97.5t-29.5 92.5t-31 68.5t-45.5 26.5q-45 0 -71 -30t-26 -81z" />
<glyph unicode="&#xf3;" horiz-adv-x="995" d="M55 324q0 -76 23.5 -139.5t66.5 -108.5t101.5 -69.5t128.5 -24.5q102 0 196.5 47t166 125.5t114.5 179t43 209.5q0 76 -23.5 140.5t-66.5 110.5t-101.5 71.5t-128.5 25.5q-102 0 -196 -47t-166 -126t-115 -181.5t-43 -212.5zM262 176q0 41 14.5 121t36 165t45 158.5 t39.5 102.5q37 66 80 94.5t96 28.5q66 0 91.5 -40t25.5 -114q0 -41 -15.5 -119.5t-37 -163.5t-45 -159t-39.5 -105q-39 -66 -82 -95.5t-94 -29.5q-70 0 -92.5 40t-22.5 116zM444 1032q160 29 281 76t202 98t122 100.5t41 84.5q0 41 -24 62.5t-58 21.5q-45 0 -84 -51.5 t-95.5 -119t-144.5 -134t-231 -97.5q-4 -2 -8.5 -21.5t-0.5 -19.5z" />
<glyph unicode="&#xf4;" horiz-adv-x="995" d="M55 324q0 -76 23.5 -139.5t66.5 -108.5t101.5 -69.5t128.5 -24.5q102 0 196.5 47t166 125.5t114.5 179t43 209.5q0 76 -23.5 140.5t-66.5 110.5t-101.5 71.5t-128.5 25.5q-102 0 -196 -47t-166 -126t-115 -181.5t-43 -212.5zM262 176q0 41 14.5 121t36 165t45 158.5 t39.5 102.5q37 66 80 94.5t96 28.5q66 0 91.5 -40t25.5 -114q0 -41 -15.5 -119.5t-37 -163.5t-45 -159t-39.5 -105q-39 -66 -82 -95.5t-94 -29.5q-70 0 -92.5 40t-22.5 116zM416 1073q-2 -2 3 -6t12 -7t13.5 -5t8.5 0q74 63 132 117.5t115 109.5q18 -78 39 -132t47 -99 l152 20q-16 39 -32.5 87t-30 99.5t-24.5 102.5t-15 96q0 4 -18.5 9t-22.5 3q-35 -37 -77 -85t-89 -100t-100.5 -106.5t-112.5 -103.5z" />
<glyph unicode="&#xf5;" horiz-adv-x="995" d="M55 324q0 -76 23.5 -139.5t66.5 -108.5t101.5 -69.5t128.5 -24.5q102 0 196.5 47t166 125.5t114.5 179t43 209.5q0 76 -23.5 140.5t-66.5 110.5t-101.5 71.5t-128.5 25.5q-102 0 -196 -47t-166 -126t-115 -181.5t-43 -212.5zM262 176q0 41 14.5 121t36 165t45 158.5 t39.5 102.5q37 66 80 94.5t96 28.5q66 0 91.5 -40t25.5 -114q0 -41 -15.5 -119.5t-37 -163.5t-45 -159t-39.5 -105q-39 -66 -82 -95.5t-94 -29.5q-70 0 -92.5 40t-22.5 116zM272 1079q0 -4 21 -4q20 0 20 4q0 49 31 86t100 37q35 0 74 -16.5t83 -36t92 -35.5t100 -16 q59 0 106 19.5t81 53t51.5 78.5t17.5 94q0 4 -21 5q-20 0 -20 -5q0 -51 -31 -87.5t-100 -36.5q-35 0 -74 16t-82 36.5t-91 37t-100 16.5q-59 0 -106 -19.5t-81 -53t-52.5 -79t-18.5 -94.5z" />
<glyph unicode="&#xf6;" horiz-adv-x="995" d="M55 324q0 -76 23.5 -139.5t66.5 -108.5t101.5 -69.5t128.5 -24.5q102 0 196.5 47t166 125.5t114.5 179t43 209.5q0 76 -23.5 140.5t-66.5 110.5t-101.5 71.5t-128.5 25.5q-102 0 -196 -47t-166 -126t-115 -181.5t-43 -212.5zM262 176q0 41 14.5 121t36 165t45 158.5 t39.5 102.5q37 66 80 94.5t96 28.5q66 0 91.5 -40t25.5 -114q0 -41 -15.5 -119.5t-37 -163.5t-45 -159t-39.5 -105q-39 -66 -82 -95.5t-94 -29.5q-70 0 -92.5 40t-22.5 116zM328 1184q0 -35 22.5 -58.5t57.5 -23.5q47 0 84.5 41t37.5 96q0 35 -21.5 56.5t-53.5 21.5 q-49 0 -88 -39t-39 -94zM721 1184q0 -35 22.5 -58.5t55.5 -23.5q49 0 86 41t37 96q0 35 -21.5 56.5t-54.5 21.5q-49 0 -87 -39t-38 -94z" />
<glyph unicode="&#xf8;" horiz-adv-x="991" d="M55 -20q-2 -4 14.5 -14.5t18.5 -6.5t20.5 25.5t39.5 45.5l22 23q41 -35 93 -53t112 -18q102 0 196.5 47t166 125.5t114.5 179t43 209.5q0 76 -23.5 138t-64.5 110l15 15q14 15 31 34.5t31 35.5l13 15l-4 5q-4 5 -10 9t-11.5 8.5t-5.5 1.5l-84 -100q-88 76 -207 76 q-102 0 -196 -47t-166 -126t-115 -181.5t-43 -212.5q0 -74 23.5 -135.5t64.5 -108.5zM262 162l424 485q-2 -8 -3 -15.5t-1 -17.5q-8 -53 -23.5 -122.5t-35 -138t-38 -126t-32.5 -82.5q-39 -66 -82 -95.5t-94 -29.5q-66 0 -89.5 37t-25.5 105zM264 221q2 10 4 23.5t4 25.5 q8 51 23.5 120t33 135.5t36 119.5t32.5 78q37 66 80 94.5t96 28.5q63 0 88 -34.5t29 -100.5z" />
<glyph unicode="&#xf9;" horiz-adv-x="1071" d="M74 709l39 -15q29 59 59.5 89t58.5 30q45 0 45 -63q0 -43 -28.5 -110t-62 -145.5t-61.5 -163.5t-28 -163q0 -90 51.5 -138t133.5 -48q41 0 85 14t89 49t93 93.5t99 146.5q-27 -80 -23.5 -137.5t27 -94.5t62.5 -54t82 -17q76 0 152.5 49t131.5 157l-41 15 q-41 -76 -77.5 -106.5t-83.5 -30.5q-72 0 -50 65l236 754l-234 -13l-135 -434q-102 -182 -169.5 -259t-137.5 -77q-39 0 -54.5 25t-15.5 61q0 68 26 138.5t56.5 140.5t56 137.5t25.5 128.5q0 72 -39 115t-120 43q-76 0 -141.5 -45t-106.5 -137zM360 1372q0 -31 14.5 -78 t59.5 -98t129 -101.5t225 -82.5q2 0 4.5 6t5.5 13t4 15.5t-1 10.5q-74 16 -119 55t-73.5 86t-45 97.5t-30 92.5t-30 68.5t-46.5 26.5q-45 0 -71 -30t-26 -81z" />
<glyph unicode="&#xfa;" horiz-adv-x="1071" d="M74 709l39 -15q29 59 59.5 89t58.5 30q45 0 45 -63q0 -43 -28.5 -110t-62 -145.5t-61.5 -163.5t-28 -163q0 -90 51.5 -138t133.5 -48q41 0 85 14t89 49t93 93.5t99 146.5q-27 -80 -23.5 -137.5t27 -94.5t62.5 -54t82 -17q76 0 152.5 49t131.5 157l-41 15 q-41 -76 -77.5 -106.5t-83.5 -30.5q-72 0 -50 65l236 754l-234 -13l-135 -434q-102 -182 -169.5 -259t-137.5 -77q-39 0 -54.5 25t-15.5 61q0 68 26 138.5t56.5 140.5t56 137.5t25.5 128.5q0 72 -39 115t-120 43q-76 0 -141.5 -45t-106.5 -137zM455 1032q160 29 280.5 76 t201.5 98t122 100.5t41 84.5q0 41 -23.5 62.5t-58.5 21.5q-45 0 -84 -51.5t-95.5 -119t-144.5 -134t-231 -97.5q-4 -2 -8 -21.5t0 -19.5z" />
<glyph unicode="&#xfb;" horiz-adv-x="1071" d="M74 709l39 -15q29 59 59.5 89t58.5 30q45 0 45 -63q0 -43 -28.5 -110t-62 -145.5t-61.5 -163.5t-28 -163q0 -90 51.5 -138t133.5 -48q41 0 85 14t89 49t93 93.5t99 146.5q-27 -80 -23.5 -137.5t27 -94.5t62.5 -54t82 -17q76 0 152.5 49t131.5 157l-41 15 q-41 -76 -77.5 -106.5t-83.5 -30.5q-72 0 -50 65l236 754l-234 -13l-135 -434q-102 -182 -169.5 -259t-137.5 -77q-39 0 -54.5 25t-15.5 61q0 68 26 138.5t56.5 140.5t56 137.5t25.5 128.5q0 72 -39 115t-120 43q-76 0 -141.5 -45t-106.5 -137zM453 1073q-2 -2 3 -6t12 -7 t13 -5t8 0q74 63 132.5 117.5t115.5 109.5q18 -78 39 -132t47 -99l152 20q-16 39 -32.5 87t-30 99.5t-24.5 102.5t-16 96q0 4 -18 9t-23 3q-35 -37 -76.5 -85t-89 -100t-100.5 -106.5t-112 -103.5z" />
<glyph unicode="&#xfc;" horiz-adv-x="1071" d="M74 709l39 -15q29 59 59.5 89t58.5 30q45 0 45 -63q0 -43 -28.5 -110t-62 -145.5t-61.5 -163.5t-28 -163q0 -90 51.5 -138t133.5 -48q41 0 85 14t89 49t93 93.5t99 146.5q-27 -80 -23.5 -137.5t27 -94.5t62.5 -54t82 -17q76 0 152.5 49t131.5 157l-41 15 q-41 -76 -77.5 -106.5t-83.5 -30.5q-72 0 -50 65l236 754l-234 -13l-135 -434q-102 -182 -169.5 -259t-137.5 -77q-39 0 -54.5 25t-15.5 61q0 68 26 138.5t56.5 140.5t56 137.5t25.5 128.5q0 72 -39 115t-120 43q-76 0 -141.5 -45t-106.5 -137zM395 1184q0 -35 22.5 -58.5 t57.5 -23.5q47 0 85 41t38 96q0 35 -21.5 56.5t-54.5 21.5q-49 0 -88 -39t-39 -94zM788 1184q0 -35 23 -58.5t55 -23.5q49 0 86 41t37 96q0 35 -21.5 56.5t-54.5 21.5q-49 0 -87 -39t-38 -94z" />
<glyph unicode="&#xff;" horiz-adv-x="931" d="M-262 -442q0 -43 19.5 -80t51 -63.5t73.5 -42t87 -15.5q90 0 159 43t128 130t118.5 217t131.5 304q84 207 140 334t103.5 202t94.5 109.5t114 55.5q29 12 50.5 28.5t21.5 53.5q0 25 -13 41t-48 16q-96 0 -190.5 -145.5t-219.5 -448.5l-53 248q-18 76 -37.5 139.5 t-45.5 109.5t-59.5 71.5t-80.5 25.5q-78 0 -142.5 -52.5t-111.5 -144.5l28 -24q29 45 50.5 65.5t50.5 20.5q20 0 40.5 -11.5t40 -45t39 -96t37.5 -167.5l88 -508q-55 -129 -103 -228t-96 -167t-102.5 -101.5t-121.5 -33.5q-33 0 -53.5 15.5t-20.5 54.5q0 27 22.5 60.5 t22.5 72.5q0 37 -22.5 63.5t-75.5 26.5q-49 0 -82 -36t-33 -97zM322 1184q0 -35 22.5 -58.5t56.5 -23.5q47 0 85 41t38 96q0 35 -21.5 56.5t-53.5 21.5q-49 0 -88 -39t-39 -94zM715 1184q0 -35 22.5 -58.5t55.5 -23.5q49 0 85.5 41t36.5 96q0 35 -21.5 56.5t-53.5 21.5 q-49 0 -87 -39t-38 -94z" />
<glyph unicode="&#x152;" horiz-adv-x="1957" d="M100 557q0 -121 42 -223.5t115 -176t169 -115.5t207 -42h1040q6 0 6 6l148 461q0 4 -23 4q-20 0 -20 -4q-25 -78 -76 -154.5t-130 -137t-186.5 -97.5t-244.5 -37h-98q-14 0 -11 6l222 696h36q63 0 103.5 -24.5t59 -64.5t18.5 -91q0 -49 -17 -102q0 -4 21 -4q20 0 22 4 l176 563q0 2 -6 2h-14h-14q-6 0 -7 -2q-35 -106 -118.5 -173t-210.5 -67h-37l194 619q0 6 15 6h121q98 0 159.5 -34t92 -88t31.5 -123.5t-21 -141.5q0 -2 6 -3t14 -1t15.5 1t7.5 3l116 422q2 6 -4 6h-983q-111 0 -222.5 -34t-214.5 -94t-194.5 -143t-159 -182.5t-106.5 -211 t-39 -228.5zM332 291q0 57 13 137t34.5 168t48.5 179t56.5 171t57 143.5t50.5 98.5q76 117 180.5 170t261.5 53h131q15 0 11 -8l-428 -1354q-2 -8 -15 -8h-80q-90 0 -151.5 18.5t-99 52t-54 79t-16.5 100.5z" />
<glyph unicode="&#x153;" horiz-adv-x="1468" d="M55 322q0 -76 24.5 -138.5t67.5 -107.5t101.5 -69.5t128.5 -24.5q98 0 185 43t153 114q33 -74 96 -116.5t156 -42.5q106 0 189 45t155 131l-25 28q-66 -72 -137.5 -119t-177.5 -47q-68 0 -92.5 40t-24.5 116q0 53 11.5 120.5t33.5 131.5h39q106 0 195.5 19.5t155 54.5 t102 84t36.5 110q0 78 -65.5 136.5t-194.5 58.5q-100 0 -185 -44t-151 -118q-35 76 -98 120t-155 44q-102 0 -197.5 -47t-167.5 -127t-115 -182.5t-43 -212.5zM264 176q0 27 7.5 72t18.5 99t25.5 112.5t28.5 111t28.5 92t26.5 60.5q37 66 80 94.5t96 28.5q66 0 90.5 -40 t24.5 -114q0 -41 -14 -119.5t-36 -163.5t-45.5 -159t-39.5 -105q-39 -66 -82 -95.5t-94 -29.5q-70 0 -92.5 40t-22.5 116zM909 467q23 80 45.5 148.5t50 119.5t64.5 81t88 30q41 0 60.5 -24t19.5 -83q0 -53 -10 -101t-42 -87t-90.5 -61.5t-154.5 -22.5h-31z" />
<glyph unicode="&#x178;" horiz-adv-x="1304" d="M170 0h686q4 0 9 20.5t1 20.5h-182q-12 0 -12 8l196 619l518 657q23 29 38.5 46.5t24.5 26.5t15 11t11 2h157q2 0 5 6t5.5 14.5t4.5 14.5t0 6h-414q-2 0 -4 -6t-5 -14.5t-4 -14.5t1 -6h163q6 0 7.5 -2t-4 -11t-17.5 -25.5t-37 -47.5l-471 -598l-155 676q-2 2 1 5t9 3h221 q2 0 4 6t5 14.5t4 14.5t-1 6h-729q-4 0 -10 -20.5t-2 -20.5h188q14 0 15 -8l168 -731l-197 -623q-2 -8 -16 -8h-183q-2 0 -5 -6t-5 -14.5t-4 -14.5t0 -6zM807 1706q0 -35 22.5 -58.5t57.5 -23.5q47 0 85 41t38 96q0 35 -21.5 56.5t-54.5 21.5q-49 0 -88 -39t-39 -94z M1200 1706q0 -35 22.5 -58.5t55.5 -23.5q49 0 86 41t37 96q0 35 -21.5 56.5t-54.5 21.5q-49 0 -87 -39t-38 -94z" />
<glyph unicode="&#x2c6;" horiz-adv-x="667" d="M225 1073q-2 -2 3 -6t12.5 -7t13.5 -5t8 0q74 63 132.5 117.5t115.5 109.5q18 -78 38.5 -132t47.5 -99l152 20q-16 39 -33 87t-30 99.5t-24.5 102.5t-15.5 96q0 4 -18.5 9t-22.5 3q-35 -37 -77 -85t-89 -100t-100 -106.5t-113 -103.5z" />
<glyph unicode="&#x2dc;" horiz-adv-x="831" d="M197 1079q0 -4 20 -4t21 4q0 49 30.5 86t100.5 37q35 0 73.5 -16.5t82.5 -36t92.5 -35.5t99.5 -16q59 0 106 19.5t81 53t51.5 78.5t17.5 94q0 4 -21 5q-20 0 -20 -5q0 -51 -31 -87.5t-100 -36.5q-35 0 -74 16t-82 36.5t-91 37t-99 16.5q-59 0 -106.5 -19.5t-81.5 -53 t-52 -79t-18 -94.5z" />
<glyph unicode="&#x2000;" horiz-adv-x="1002" />
<glyph unicode="&#x2001;" horiz-adv-x="2005" />
<glyph unicode="&#x2002;" horiz-adv-x="1002" />
<glyph unicode="&#x2003;" horiz-adv-x="2005" />
<glyph unicode="&#x2004;" horiz-adv-x="668" />
<glyph unicode="&#x2005;" horiz-adv-x="501" />
<glyph unicode="&#x2006;" horiz-adv-x="334" />
<glyph unicode="&#x2007;" horiz-adv-x="334" />
<glyph unicode="&#x2008;" horiz-adv-x="250" />
<glyph unicode="&#x2009;" horiz-adv-x="401" />
<glyph unicode="&#x200a;" horiz-adv-x="111" />
<glyph unicode="&#x2010;" horiz-adv-x="659" d="M55 422h512q4 35 12.5 68.5t24.5 56.5q8 8 0 8h-512q-4 -35 -12 -68.5t-25 -56.5q-4 -8 0 -8z" />
<glyph unicode="&#x2011;" horiz-adv-x="659" d="M55 422h512q4 35 12.5 68.5t24.5 56.5q8 8 0 8h-512q-4 -35 -12 -68.5t-25 -56.5q-4 -8 0 -8z" />
<glyph unicode="&#x2012;" horiz-adv-x="659" d="M55 422h512q4 35 12.5 68.5t24.5 56.5q8 8 0 8h-512q-4 -35 -12 -68.5t-25 -56.5q-4 -8 0 -8z" />
<glyph unicode="&#x2013;" horiz-adv-x="1099" d="M82 483q0 -20 4 -20h928q4 0 4 20t-4 21h-928q-4 0 -4 -21z" />
<glyph unicode="&#x2014;" horiz-adv-x="2029" d="M82 483q0 -20 4 -20h1858q4 0 4 20t-4 21h-1858q-4 0 -4 -21z" />
<glyph unicode="&#x2018;" horiz-adv-x="397" d="M195 1118q0 -45 24.5 -85t81.5 -40q61 0 94 40t33 100q0 27 -7 47t-16.5 38.5t-16.5 37t-7 42.5q0 47 31.5 79t74.5 55q49 23 119 43q4 2 5 21.5t-1 16.5q-84 -16 -159.5 -58t-132 -97t-90 -117.5t-33.5 -122.5z" />
<glyph unicode="&#x2019;" horiz-adv-x="397" d="M140 991q1 -6 1 -4q84 16 160 58t132 97.5t90 118t34 121.5q0 45 -24.5 85t-81.5 40q-63 0 -95 -40t-32 -99q0 -27 7 -47.5t15 -38.5t15.5 -36.5t7.5 -43.5q0 -47 -32 -78.5t-73 -54.5q-49 -23 -119 -43q-2 0 -3 -7t-2 -14.5t0 -13.5z" />
<glyph unicode="&#x201a;" horiz-adv-x="428" d="M-140 -287q-1 -8 0 -13l1 -5q84 16 158.5 58t132 97.5t90 118t32.5 121.5q0 47 -23.5 86t-80.5 39q-63 0 -96 -40t-33 -99q0 -27 7 -46.5t16.5 -38t16.5 -36.5t7 -43q0 -47 -31.5 -79t-74.5 -54q-25 -14 -55.5 -24.5t-61.5 -20.5q-2 0 -3 -6.5t-2 -14.5z" />
<glyph unicode="&#x201c;" horiz-adv-x="737" d="M195 1118q0 -45 24.5 -85t81.5 -40q61 0 94 40t33 100q0 27 -7 47t-16.5 38.5t-16.5 37t-7 42.5q0 47 31.5 79t74.5 55q49 23 119 43q4 2 5 21.5t-1 16.5q-84 -16 -159.5 -58t-132 -97t-90 -117.5t-33.5 -122.5zM535 1118q0 -45 24.5 -85t81.5 -40q61 0 94 40t33 100 q0 27 -7 47t-16.5 38.5t-16.5 37t-7 42.5q0 47 31.5 79t74.5 55q49 23 119 43q4 2 5 21.5t-1 16.5q-84 -16 -159.5 -58t-132 -97t-90 -117.5t-33.5 -122.5z" />
<glyph unicode="&#x201d;" horiz-adv-x="737" d="M140 991q1 -6 1 -4q84 16 160 58t132 97.5t90 118t34 121.5q0 45 -24.5 85t-81.5 40q-63 0 -95 -40t-32 -99q0 -27 7 -47.5t15 -38.5t15.5 -36.5t7.5 -43.5q0 -47 -32 -78.5t-73 -54.5q-49 -23 -119 -43q-2 0 -3 -7t-2 -14.5t0 -13.5zM480 991q1 -6 1 -4q84 16 160 58 t132 97.5t90 118t34 121.5q0 45 -24.5 85t-81.5 40q-63 0 -95 -40t-32 -99q0 -27 7 -47.5t15 -38.5t15.5 -36.5t7.5 -43.5q0 -47 -32 -78.5t-73 -54.5q-49 -23 -119 -43q-2 0 -3 -7t-2 -14.5t0 -13.5z" />
<glyph unicode="&#x201e;" horiz-adv-x="768" d="M-140 -287q-1 -8 0 -13l1 -5q84 16 158.5 58t132 97.5t90 118t32.5 121.5q0 47 -23.5 86t-80.5 39q-63 0 -96 -40t-33 -99q0 -27 7 -46.5t16.5 -38t16.5 -36.5t7 -43q0 -47 -31.5 -79t-74.5 -54q-25 -14 -55.5 -24.5t-61.5 -20.5q-2 0 -3 -6.5t-2 -14.5zM200 -287 q-1 -8 0 -13l1 -5q84 16 158.5 58t132 97.5t90 118t32.5 121.5q0 47 -23.5 86t-80.5 39q-63 0 -96 -40t-33 -99q0 -27 7 -46.5t16.5 -38t16.5 -36.5t7 -43q0 -47 -31.5 -79t-74.5 -54q-25 -14 -55.5 -24.5t-61.5 -20.5q-2 0 -3 -6.5t-2 -14.5z" />
<glyph unicode="&#x2022;" horiz-adv-x="706" d="M182 725q0 -45 17.5 -85t48.5 -70.5t70.5 -48t87.5 -17.5q45 0 84.5 17.5t70.5 48t48.5 70.5t17.5 85t-17.5 86t-48.5 71.5t-70.5 48t-84.5 17.5q-47 0 -87 -17.5t-71 -48t-48.5 -71.5t-17.5 -86z" />
<glyph unicode="&#x2026;" horiz-adv-x="1292" d="M41 53q0 -41 26.5 -66.5t65.5 -25.5q27 0 53.5 13.5t46 35t31.5 50t12 59.5q0 41 -25.5 68.5t-62.5 27.5q-59 0 -103 -49t-44 -113zM473 53q0 -41 26.5 -66.5t65.5 -25.5q27 0 53.5 13.5t46 35t32 50t12.5 59.5q0 41 -26 68.5t-62 27.5q-59 0 -103.5 -49t-44.5 -113z M905 53q0 -41 26.5 -66.5t65.5 -25.5q27 0 53.5 13.5t46 35t32 50t12.5 59.5q0 41 -25.5 68.5t-62.5 27.5q-59 0 -103.5 -49t-44.5 -113z" />
<glyph unicode="&#x202f;" horiz-adv-x="401" />
<glyph unicode="&#x2039;" horiz-adv-x="563" d="M100 449q-8 -4 2 -9q16 -10 52 -41.5t68 -77t49.5 -101.5t-1.5 -114q0 -6 6.5 -10t15.5 -6t17 -1t8 5q14 49 19.5 100.5t3.5 98.5t-11.5 83t-21.5 54q23 18 54.5 53t63.5 79t59.5 93.5t43.5 98.5q0 4 -6 8t-15 6t-18 2q-8 0 -10 -6q-18 -59 -70.5 -111.5t-112.5 -94.5 t-115.5 -70.5t-80.5 -38.5z" />
<glyph unicode="&#x203a;" horiz-adv-x="563" d="M33 115q0 -4 6 -8.5t15 -6.5t18 -2q8 0 10 6q18 59 70.5 111.5t113 94.5t115.5 71t80 39q8 4 -2 8q-16 10 -52 42t-68 77t-49.5 100t1.5 115q0 6 -6 10t-15.5 6t-17.5 1t-8 -5q-16 -49 -20.5 -100t-2.5 -98.5t11.5 -83t21.5 -54.5q-23 -18 -54.5 -53t-63.5 -79t-60.5 -93 t-42.5 -98z" />
<glyph unicode="&#x205f;" horiz-adv-x="501" />
<glyph unicode="&#x2122;" horiz-adv-x="1085" d="M268 1307q0 -4 19 -4q20 0 20 4q0 47 19.5 75.5t87.5 28.5h4q4 0 4 -2v-313l-1 -1t-3 -1h-53q-2 0 -3 -19q0 -18 3 -18h208q2 0 2 18t-2 19h-51h-2v2v313q0 2 2 2q66 0 88.5 -28.5t22.5 -75.5q0 -4 20 -4q21 0 21 4v143v2h-404q-2 0 -2 -2v-143zM735 1075q0 -18 2 -18 h150q2 0 2 18t-2 19h-49q-2 0 -3 1l-1 1v307l127 -354q0 -2 12 -2q14 0 18 2l135 374v-327l-1 -1t-3 -1h-49q-2 0 -2 -19q0 -18 2 -18h209v37h-53h-4v2v313q0 2 4 2h53v41h-188q-4 0 -9 -10l-86 -254l-81 254q-4 10 -9 10h-172q-2 0 -2 -20t2 -21h54q2 0 2 -2v-313v-2h-2 h-54q-2 0 -2 -19z" />
<glyph unicode="&#x25fc;" horiz-adv-x="890" d="M0 0v891h891v-891h-891z" />
<glyph unicode="&#xfb01;" horiz-adv-x="1157" d="M-473 -440q0 -41 20.5 -78t54 -64.5t76.5 -44t89 -16.5q90 0 163.5 39t135 109.5t110.5 168t88 213.5q27 84 57.5 199t64.5 244t68.5 263t67.5 255h316q-2 -8 -16.5 -54t-36 -112t-46 -142.5t-46 -142t-36 -111.5t-14.5 -55q-35 -121 6 -184t139 -63q88 0 170 51t140 155 l-45 15q-35 -63 -77 -101t-91 -38q-63 0 -45 81q0 4 17 59.5t44 137.5t58.5 177t59.5 178t47 143.5t24 72.5q2 4 -9.5 8.5t-15.5 0.5q-20 -20 -87 -28.5t-149 -8.5h-294q2 4 9 27.5t14 50t14.5 49t7.5 26.5q45 141 81.5 227.5t72.5 133.5t71 62.5t76 15.5q68 0 106.5 -28 t38.5 -71q0 -31 -10 -48t-22.5 -32.5t-22.5 -36t-10 -53.5q0 -84 92 -84q45 0 84 41.5t39 104.5q0 61 -27 107t-70 77t-97 47.5t-112 16.5q-86 0 -164.5 -38t-147.5 -105.5t-123 -162t-91 -208.5q-12 -29 -18.5 -54.5t-20.5 -64.5h-207q-2 0 -5 -6.5t-7 -13.5t-6 -13t0 -6 h213q-33 -117 -66.5 -255t-67.5 -277.5t-68 -271.5t-66 -237q-41 -123 -70 -201.5t-56.5 -124.5t-56 -64.5t-67.5 -18.5q-33 0 -59.5 19.5t-26.5 54.5q0 14 7 28.5t16 30.5t16.5 34.5t7.5 37.5q0 37 -24.5 59.5t-76.5 22.5q-45 0 -76.5 -33t-31.5 -92z" />
<glyph unicode="&#xfb02;" horiz-adv-x="1167" d="M-473 -440q0 -41 20.5 -78t54 -64.5t76.5 -44t89 -16.5q90 0 163.5 39t135 109.5t110.5 168t88 213.5q27 84 58.5 199t65.5 244t69 263t67 255h314l-187 -596q-41 -131 -2 -199.5t139 -68.5q88 0 170 51t138 155l-45 15q-33 -63 -75 -101t-91 -38q-29 0 -41.5 18t0.5 59 l430 1370q2 4 -9.5 8.5t-13.5 0.5q-8 -8 -15 -13.5t-26.5 -9.5t-58.5 -6t-109 -2q-35 10 -72.5 19.5t-97.5 9.5q-86 0 -164.5 -38t-148.5 -105.5t-124 -163t-91 -207.5q-12 -29 -18.5 -54.5t-20.5 -64.5h-207q-2 0 -5 -6.5t-7 -13.5t-6 -13t0 -6h213q-33 -117 -66.5 -255 t-67.5 -277.5t-68 -271.5t-66 -237q-39 -123 -69 -201.5t-57.5 -124.5t-56 -64.5t-67.5 -18.5q-33 0 -59.5 19.5t-26.5 54.5q0 14 7 28.5t16 30.5t16.5 34.5t7.5 37.5q0 37 -24.5 59.5t-76.5 22.5q-45 0 -76.5 -33t-31.5 -92zM537 887q2 4 8 27.5t14 50t14.5 49t6.5 26.5 q45 141 81.5 227.5t72.5 133.5t71 62.5t76 15.5q47 0 81.5 -9.5t63.5 -19.5l-174 -563h-315z" />
</font>
</defs>
</svg>
